<svg width="24" height="24" viewBox="0 0 24 24" fill="none" xmlns="http://www.w3.org/2000/svg">
<path d="M17.6933 12C17.6906 11.1036 17.5945 10.2099 17.4067 9.33334H19.8067C19.6831 8.96771 19.5338 8.61127 19.36 8.26667H17.1267C16.7068 6.86404 16.0557 5.5414 15.2 4.35334C14.6533 4.12347 14.0833 3.95359 13.5 3.84667C14.6722 5.10616 15.557 6.60513 16.0933 8.24H12.5V3.73334H11.5V8.24667H7.90667C8.44405 6.60883 9.33123 5.10747 10.5067 3.84667C9.92585 3.95181 9.35811 4.11945 8.81334 4.34667C7.95431 5.52975 7.29865 6.84784 6.87334 8.24667H4.62667C4.44972 8.59756 4.29822 8.96072 4.17334 9.33334H6.59334C6.40553 10.2099 6.30946 11.1036 6.30667 12C6.30852 12.9805 6.42033 13.9577 6.64001 14.9133H4.28001C4.41793 15.287 4.5828 15.6502 4.77334 16H6.92667C7.33481 17.2772 7.93988 18.4828 8.72001 19.5733C9.27865 19.8129 9.86225 19.9896 10.46 20.1C9.37195 18.9132 8.53518 17.5186 8.00001 16H11.5067V20.2267H12.5067V16H16C15.463 17.5192 14.6239 18.9139 13.5333 20.1C14.1339 19.9858 14.7198 19.8047 15.28 19.56C16.0589 18.4736 16.6639 17.2725 17.0733 16H19.2067C19.3963 15.6567 19.5612 15.3002 19.7 14.9333H17.3333C17.5635 13.9722 17.6843 12.9882 17.6933 12V12ZM11.5 14.9133H7.67334C7.20399 13.0786 7.18341 11.1577 7.61334 9.31334H11.5V14.9133ZM16.3267 14.9133H12.5V9.33334H16.3867C16.5782 10.2092 16.6721 11.1035 16.6667 12C16.6721 12.9813 16.5579 13.9596 16.3267 14.9133V14.9133Z" fill="white"/>
<path d="M12 1.33333C9.89032 1.33333 7.82803 1.95892 6.0739 3.13099C4.31978 4.30305 2.9526 5.96896 2.14527 7.91804C1.33793 9.86712 1.1267 12.0118 1.53827 14.081C1.94985 16.1501 2.96575 18.0507 4.45751 19.5425C5.94927 21.0342 7.84989 22.0501 9.91902 22.4617C11.9882 22.8733 14.1329 22.662 16.0819 21.8547C18.031 21.0474 19.6969 19.6802 20.869 17.9261C22.0411 16.172 22.6667 14.1097 22.6667 12C22.6667 9.17102 21.5428 6.45791 19.5425 4.45752C17.5421 2.45713 14.829 1.33333 12 1.33333V1.33333ZM12 21.3333C10.154 21.3333 8.34952 20.7859 6.81466 19.7604C5.2798 18.7348 4.08353 17.2772 3.37711 15.5717C2.67069 13.8663 2.48586 11.9896 2.84599 10.1792C3.20612 8.36866 4.09503 6.70562 5.40032 5.40033C6.70561 4.09504 8.36865 3.20613 10.1791 2.846C11.9896 2.48587 13.8663 2.6707 15.5717 3.37712C17.2771 4.08354 18.7348 5.27981 19.7604 6.81467C20.7859 8.34953 21.3333 10.154 21.3333 12C21.3333 14.4753 20.35 16.8493 18.5996 18.5997C16.8493 20.35 14.4753 21.3333 12 21.3333Z" fill="white"/>
</svg>
