<svg width="80" height="60" viewBox="0 0 126 60" fill="none" xmlns="http://www.w3.org/2000/svg">
<path d="M90.15 53.7L107.25 14.5L109.8 14.85L92.3 53.95L90.15 53.7ZM123.831 32.2V34.05L111.781 40.65L109.931 38.85L121.731 33.15L109.931 27.05L111.781 25.25L123.831 32.2Z" fill="#42B983"/>
<path d="M45.1172 25.0703C45.0846 25.2331 45.0521 25.4121 45.0195 25.6074C45.0195 25.7702 44.9219 25.8678 44.7266 25.9004C44.5964 25.4447 44.5964 25.1842 44.7266 25.1191C44.8893 25.0215 45.0195 25.0052 45.1172 25.0703ZM46.8262 30.0996C46.7936 30.3275 46.696 30.5065 46.5332 30.6367C46.3704 30.7344 46.3216 30.9134 46.3867 31.1738C46.0938 30.8483 45.9961 30.7018 46.0938 30.7344C46.1914 30.7344 46.224 30.6693 46.1914 30.5391C46.0286 30.6042 45.8984 30.7181 45.8008 30.8809C45.7031 31.0436 45.5566 31.0599 45.3613 30.9297C45.4264 30.7995 45.5078 30.7181 45.6055 30.6855C45.7031 30.653 45.8171 30.6042 45.9473 30.5391C46.11 30.3763 46.2402 30.2461 46.3379 30.1484C46.4681 30.0508 46.6309 30.0345 46.8262 30.0996ZM51.6113 41.5742C51.416 41.7044 51.2695 41.7044 51.1719 41.5742C51.0742 41.4115 50.9277 41.4115 50.7324 41.5742C50.7324 41.3464 50.8301 41.2975 51.0254 41.4277C51.2533 41.5579 51.4486 41.6068 51.6113 41.5742ZM51.5137 42.0625C51.4486 42.2253 51.3509 42.3392 51.2207 42.4043C51.123 42.4694 51.0254 42.5671 50.9277 42.6973C50.8952 42.5345 50.944 42.4043 51.0742 42.3066C51.2044 42.1764 51.3509 42.0951 51.5137 42.0625ZM56.7871 52.0234C56.9499 52.1862 56.9661 52.349 56.8359 52.5117C56.7383 52.6419 56.6081 52.7396 56.4453 52.8047C56.1198 52.707 55.7617 52.6908 55.3711 52.7559C54.9805 52.7884 54.5573 52.7884 54.1016 52.7559C53.7109 52.7559 53.3691 52.7884 53.0762 52.8535C52.7832 52.9186 52.4414 52.9512 52.0508 52.9512C51.7904 52.9186 51.4974 52.9674 51.1719 53.0977C50.8789 53.2279 50.651 53.3906 50.4883 53.5859C50.2604 53.5859 50.0814 53.5046 49.9512 53.3418C49.821 53.2116 49.6257 53.1628 49.3652 53.1953C49.0072 53.2604 48.584 53.293 48.0957 53.293C47.64 53.3255 47.2493 53.3906 46.9238 53.4883C46.696 53.3906 46.4844 53.3581 46.2891 53.3906C46.1263 53.4232 45.9635 53.4883 45.8008 53.5859C45.638 53.6836 45.459 53.765 45.2637 53.8301C45.1009 53.9277 44.9219 53.9766 44.7266 53.9766C44.4987 53.5208 44.0755 53.2604 43.457 53.1953C42.8711 53.1628 42.3828 53.2279 41.9922 53.3906C41.7643 53.3255 41.5039 53.3092 41.2109 53.3418C40.918 53.3743 40.625 53.4069 40.332 53.4395C40.0391 53.472 39.7624 53.472 39.502 53.4395C39.2415 53.4395 39.0137 53.3581 38.8184 53.1953C38.9811 53 39.209 52.8698 39.502 52.8047C39.7949 52.707 40.0879 52.6582 40.3809 52.6582C40.5436 52.6582 40.6738 52.6908 40.7715 52.7559C40.9017 52.7884 41.0156 52.8047 41.1133 52.8047C41.569 52.8047 42.0898 52.707 42.6758 52.5117C43.2943 52.3164 43.7663 52.0723 44.0918 51.7793C44.2871 51.5189 44.4173 51.3887 44.4824 51.3887C44.5801 51.3561 44.6452 51.3073 44.6777 51.2422C44.8079 51.0794 44.9056 50.9004 44.9707 50.7051C45.0358 50.5098 45.1172 50.3307 45.2148 50.168C45.1497 50.0378 45.0358 49.9727 44.873 49.9727C44.7103 49.9401 44.5801 49.9564 44.4824 50.0215C44.3522 49.5007 44.4173 49.1751 44.6777 49.0449C44.4824 48.1986 44.2057 47.4661 43.8477 46.8477C43.5221 46.1966 43.2617 45.4642 43.0664 44.6504C42.806 44.4876 42.627 44.3086 42.5293 44.1133C42.4642 43.918 42.4642 43.6087 42.5293 43.1855C42.3991 43.0879 42.3014 42.9414 42.2363 42.7461C42.2038 42.5182 42.1712 42.2904 42.1387 42.0625C42.1061 41.8021 42.0736 41.5417 42.041 41.2812C42.0085 41.0208 41.9434 40.8092 41.8457 40.6465C41.2272 40.7441 40.5111 40.7604 39.6973 40.6953C39.3717 40.6953 39.0462 40.679 38.7207 40.6465C38.3952 40.6139 38.0859 40.5977 37.793 40.5977C37.3047 40.6302 36.8001 40.7116 36.2793 40.8418C35.791 40.9395 35.3516 40.8581 34.9609 40.5977C34.375 40.5651 33.7728 40.5814 33.1543 40.6465C32.5684 40.7116 31.9987 40.8255 31.4453 40.9883C31.3477 41.0534 31.2826 41.1348 31.25 41.2324C31.2174 41.3301 31.1361 41.4115 31.0059 41.4766C31.0059 41.7695 30.9408 42.0462 30.8105 42.3066C30.7129 42.5345 30.6315 42.7786 30.5664 43.0391C30.3711 43.8854 30.0781 44.5853 29.6875 45.1387C29.5573 45.5293 29.4759 45.8548 29.4434 46.1152C29.4108 46.3431 29.3132 46.5384 29.1504 46.7012C29.1504 47.0267 29.1016 47.3522 29.0039 47.6777C28.9388 47.9707 28.8574 48.2637 28.7598 48.5566C28.6947 48.8496 28.6621 49.1263 28.6621 49.3867C28.6947 49.6146 28.8249 49.8262 29.0527 50.0215C29.0527 50.3796 29.1016 50.6237 29.1992 50.7539C29.2969 50.8841 29.4434 51.0306 29.6387 51.1934C30.1595 51.6816 30.6478 51.877 31.1035 51.7793C31.5592 51.6816 32.015 51.6654 32.4707 51.7305C33.1868 51.8607 33.8542 51.8607 34.4727 51.7305C34.4727 51.8932 34.4889 52.0072 34.5215 52.0723C34.554 52.1374 34.5378 52.2025 34.4727 52.2676C34.1146 52.3327 33.7565 52.3815 33.3984 52.4141C33.0729 52.4466 32.7474 52.3978 32.4219 52.2676C32.1289 52.3652 31.8359 52.4792 31.543 52.6094C31.2826 52.707 31.0059 52.6745 30.7129 52.5117C30.4199 52.4792 30.127 52.5443 29.834 52.707C29.5085 52.5117 29.3294 52.4141 29.2969 52.4141C29.2969 52.3815 29.2969 52.3327 29.2969 52.2676C28.8411 52.1699 28.4505 52.1699 28.125 52.2676C27.7995 52.3652 27.474 52.5117 27.1484 52.707C25.9766 52.6745 24.9023 52.7233 23.9258 52.8535C22.9492 52.9837 21.9889 53.1139 21.0449 53.2441C20.9798 53.179 20.8984 53.1302 20.8008 53.0977C20.6706 53.0977 20.5729 53.0651 20.5078 53C23.3724 52.7396 25.5208 51.8932 26.9531 50.4609C27.1484 49.9076 27.3763 49.403 27.6367 48.9473C27.9297 48.459 28.125 47.873 28.2227 47.1895C28.3854 47.0267 28.4668 46.8477 28.4668 46.6523C28.4668 46.457 28.4993 46.2617 28.5645 46.0664C28.7272 45.513 28.9225 44.9922 29.1504 44.5039C29.3783 43.9831 29.5573 43.446 29.6875 42.8926C29.7201 42.7298 29.7526 42.5671 29.7852 42.4043C29.8503 42.209 29.9642 42.0625 30.127 41.9648C30.0944 41.6068 30.127 41.3301 30.2246 41.1348C30.3223 40.9395 30.4362 40.7604 30.5664 40.5977C30.6641 40.1094 30.7454 39.6699 30.8105 39.2793C30.9082 38.8887 31.0221 38.4818 31.1523 38.0586C31.1523 37.5052 31.2826 36.9355 31.543 36.3496C31.8034 35.7311 31.9499 35.0964 31.9824 34.4453C32.015 33.8594 32.1289 33.4199 32.3242 33.127C32.5195 32.834 32.6497 32.5736 32.7148 32.3457C32.7799 32.1829 32.7962 32.0365 32.7637 31.9062C32.7311 31.7435 32.7474 31.597 32.8125 31.4668C32.9102 31.1738 33.0404 30.8971 33.2031 30.6367C33.3984 30.3763 33.5612 30.0671 33.6914 29.709C33.7565 29.4486 33.8053 29.1719 33.8379 28.8789C33.903 28.5859 34.0495 28.3418 34.2773 28.1465C34.2122 27.9512 34.2285 27.7721 34.3262 27.6094C34.4564 27.4141 34.5215 27.235 34.5215 27.0723C34.5215 26.7793 34.5866 26.584 34.7168 26.4863C34.847 26.3561 34.9284 26.1934 34.9609 25.998C34.9935 25.8353 34.9935 25.6888 34.9609 25.5586C34.9609 25.3958 35.0423 25.2331 35.2051 25.0703C35.1725 25.0052 35.1237 24.9401 35.0586 24.875C34.9935 24.8099 34.9772 24.696 35.0098 24.5332C35.0423 24.403 35.0911 24.3053 35.1562 24.2402C35.2539 24.1751 35.2865 24.0612 35.2539 23.8984C35.4167 23.6706 35.5632 23.459 35.6934 23.2637C35.8561 23.0358 35.9863 22.7917 36.084 22.5312C36.2467 22.2057 36.377 21.9128 36.4746 21.6523C36.5723 21.3594 36.6699 21.0176 36.7676 20.627C36.8327 20.4316 36.9141 20.2526 37.0117 20.0898C37.1094 19.8945 37.1908 19.6992 37.2559 19.5039C37.2884 19.3737 37.3047 19.2598 37.3047 19.1621C37.3047 19.0319 37.3372 18.9342 37.4023 18.8691C37.793 18.3809 38.0371 17.974 38.1348 17.6484C38.2324 17.2904 38.444 17.0625 38.7695 16.9648C38.8346 16.6719 38.9323 16.4277 39.0625 16.2324C39.2253 16.0046 39.4857 15.8906 39.8438 15.8906C39.974 16.0859 40.0879 16.3138 40.1855 16.5742C40.3158 16.8021 40.5111 16.9648 40.7715 17.0625C40.9017 17.388 40.9831 17.681 41.0156 17.9414C41.0482 18.2018 41.1458 18.4948 41.3086 18.8203C41.5039 18.9831 41.6341 19.1784 41.6992 19.4062C41.7643 19.6341 41.8132 19.8783 41.8457 20.1387C41.8783 20.3665 41.9108 20.6107 41.9434 20.8711C41.9759 21.099 42.0573 21.3105 42.1875 21.5059C42.2852 21.7988 42.3991 21.9453 42.5293 21.9453C42.7572 22.2057 42.9199 22.2708 43.0176 22.1406C43.1478 21.9779 43.3431 21.8802 43.6035 21.8477C43.7012 22.2383 43.6523 22.5638 43.457 22.8242C43.2943 23.0521 43.1641 23.3125 43.0664 23.6055C43.0339 23.7357 42.9688 23.8333 42.8711 23.8984C42.806 23.9635 42.806 24.0612 42.8711 24.1914C42.9362 24.2565 43.0013 24.2891 43.0664 24.2891C43.1641 24.2565 43.278 24.2565 43.4082 24.2891C43.5384 24.5169 43.6523 24.696 43.75 24.8262C43.7174 24.9889 43.6523 25.1029 43.5547 25.168C43.457 25.2005 43.3757 25.2819 43.3105 25.4121C43.3431 25.4772 43.4082 25.5098 43.5059 25.5098C43.6361 25.4772 43.75 25.4447 43.8477 25.4121C43.9453 25.3796 44.043 25.3796 44.1406 25.4121C44.2383 25.4121 44.3034 25.4772 44.3359 25.6074C44.2708 25.7051 44.1895 25.7376 44.0918 25.7051C43.9941 25.6725 43.8965 25.64 43.7988 25.6074C43.6361 25.7702 43.5221 25.9004 43.457 25.998C43.3919 26.0957 43.3594 26.2096 43.3594 26.3398C43.3594 26.4701 43.3594 26.6003 43.3594 26.7305C43.3594 26.8607 43.3431 26.9746 43.3105 27.0723C43.7012 27.1374 43.8802 27.2188 43.8477 27.3164C43.8151 27.3815 43.8151 27.4466 43.8477 27.5117C43.7174 27.6745 43.6523 27.7721 43.6523 27.8047C43.6849 27.8047 43.6686 27.8698 43.6035 28C43.7337 28.0977 43.8477 28.1302 43.9453 28.0977C44.043 28.0326 44.1569 27.9674 44.2871 27.9023C44.4173 27.9349 44.4987 28.0163 44.5312 28.1465C44.5638 28.2441 44.6126 28.3581 44.6777 28.4883C44.515 28.5534 44.3848 28.6348 44.2871 28.7324C44.1895 28.7975 44.0592 28.8626 43.8965 28.9277C44.0918 29.5462 44.2871 29.9857 44.4824 30.2461C44.6777 30.5065 44.8405 30.8158 44.9707 31.1738C45.0684 31.1738 45.166 31.1413 45.2637 31.0762C45.3613 31.0111 45.4427 31.0111 45.5078 31.0762C45.3776 31.1738 45.3288 31.304 45.3613 31.4668C45.3939 31.6296 45.3776 31.7598 45.3125 31.8574C45.5078 31.9225 45.6055 31.89 45.6055 31.7598C45.6055 31.6296 45.6706 31.5482 45.8008 31.5156C45.8008 31.6784 45.752 31.776 45.6543 31.8086C45.5892 31.8411 45.5404 31.9225 45.5078 32.0527C45.5729 32.1829 45.638 32.3132 45.7031 32.4434C45.8008 32.541 45.8659 32.6712 45.8984 32.834C46.0286 32.8991 46.1426 32.9154 46.2402 32.8828C46.3704 32.8503 46.4844 32.8014 46.582 32.7363C46.6797 32.6712 46.7773 32.6061 46.875 32.541C47.0052 32.4434 47.1517 32.3945 47.3145 32.3945C47.6725 32.7201 47.7865 32.8991 47.6562 32.9316C47.5586 32.9642 47.5423 33.1107 47.6074 33.3711C47.2819 33.5013 47.0703 33.6966 46.9727 33.957C46.875 34.1849 46.7285 34.3802 46.5332 34.543C46.5983 34.7057 46.7285 34.8034 46.9238 34.8359C47.1191 34.8685 47.2819 34.9336 47.4121 35.0312C47.2493 35.4219 47.2005 35.6172 47.2656 35.6172C47.3307 35.5846 47.3796 35.6009 47.4121 35.666C47.3145 36.0241 47.3145 36.2194 47.4121 36.252C47.5423 36.2845 47.6725 36.3008 47.8027 36.3008C47.9329 36.3008 48.0469 36.2845 48.1445 36.252C48.2422 36.2194 48.2747 36.1543 48.2422 36.0566C48.5026 36.0892 48.6654 36.1055 48.7305 36.1055C48.7956 36.1055 48.8607 36.0729 48.9258 36.0078C49.1536 36.0729 49.2513 36.2194 49.2188 36.4473C49.1862 36.6426 49.0723 36.7728 48.877 36.8379C48.6816 36.8053 48.5514 36.6426 48.4863 36.3496C48.3887 36.4473 48.2096 36.5449 47.9492 36.6426C47.7214 36.7402 47.6074 36.8867 47.6074 37.082C47.6074 37.1471 47.64 37.2448 47.7051 37.375C47.7702 37.5052 47.8841 37.5378 48.0469 37.4727C48.2096 37.3424 48.3073 37.2611 48.3398 37.2285C48.4049 37.196 48.4701 37.1797 48.5352 37.1797C48.4701 37.3424 48.4375 37.5052 48.4375 37.668C48.4375 37.8307 48.3398 37.9284 48.1445 37.9609C48.2747 38.026 48.3073 38.1237 48.2422 38.2539C48.1771 38.3841 48.2096 38.4818 48.3398 38.5469C48.4049 38.4492 48.5189 38.4004 48.6816 38.4004C48.8444 38.3678 48.9746 38.3027 49.0723 38.2051C49.3001 38.5306 49.4303 38.6934 49.4629 38.6934C49.528 38.6934 49.5931 38.7096 49.6582 38.7422C49.3978 39.1328 49.1862 39.4746 49.0234 39.7676C49.056 39.9954 49.0885 40.1257 49.1211 40.1582C49.1862 40.1908 49.3001 40.1908 49.4629 40.1582C49.4629 40.321 49.4954 40.4186 49.5605 40.4512C49.6582 40.4837 49.7396 40.5488 49.8047 40.6465C49.6419 40.9069 49.5443 41.0697 49.5117 41.1348C49.5117 41.1673 49.4629 41.151 49.3652 41.0859C49.3652 41.2487 49.3652 41.3789 49.3652 41.4766C49.3652 41.5417 49.3815 41.6556 49.4141 41.8184C49.6745 41.7533 49.9186 41.6556 50.1465 41.5254C50.3743 41.3952 50.5371 41.4928 50.6348 41.8184C50.4395 41.8509 50.293 41.9323 50.1953 42.0625C50.1302 42.1927 50.0163 42.2741 49.8535 42.3066C49.5931 42.6647 49.4141 42.9414 49.3164 43.1367C49.2513 43.2995 49.3001 43.4948 49.4629 43.7227C49.6257 43.6576 49.7559 43.6413 49.8535 43.6738C49.9512 43.7064 50.0488 43.7064 50.1465 43.6738C50.0814 43.8691 50.0163 43.9831 49.9512 44.0156C49.8861 44.0482 49.8535 44.1947 49.8535 44.4551C49.9512 44.6178 50.0326 44.6178 50.0977 44.4551C50.1953 44.2598 50.293 44.2435 50.3906 44.4062C50.2604 44.569 50.1465 44.6992 50.0488 44.7969C49.9837 44.8945 49.9186 45.0085 49.8535 45.1387C50.0488 45.3014 50.1628 45.4967 50.1953 45.7246C50.2279 45.9199 50.2116 46.1478 50.1465 46.4082C50.2767 46.6361 50.5046 46.7988 50.8301 46.8965C50.7975 47.0592 50.7324 47.2057 50.6348 47.3359C50.5697 47.4336 50.5046 47.5312 50.4395 47.6289C50.5046 47.7917 50.5697 47.9219 50.6348 48.0195C50.6999 48.1172 50.7487 48.2474 50.7812 48.4102C51.0417 48.5729 51.2858 48.5892 51.5137 48.459C51.7415 48.3288 51.9857 48.3288 52.2461 48.459C52.2786 48.5892 52.2624 48.6868 52.1973 48.752C52.1647 48.8171 52.1322 48.8984 52.0996 48.9961C52.2624 49.1589 52.4251 49.2077 52.5879 49.1426C52.7507 49.0449 52.9134 49.0449 53.0762 49.1426C53.1738 49.3053 53.1738 49.4355 53.0762 49.5332C53.0111 49.6309 53.0111 49.7611 53.0762 49.9238C53.0111 49.9889 52.946 50.054 52.8809 50.1191C52.8158 50.1842 52.7181 50.2331 52.5879 50.2656C52.6855 50.4284 52.7669 50.5911 52.832 50.7539C52.9297 50.8841 53.0762 50.998 53.2715 51.0957C53.5645 51.1283 53.8411 51.1771 54.1016 51.2422C54.3945 51.2747 54.5573 51.4212 54.5898 51.6816C54.8177 51.9095 55.1595 52.0397 55.6152 52.0723C56.071 52.1048 56.4616 52.0885 56.7871 52.0234ZM39.502 16.6719C39.4368 16.737 39.3717 16.8509 39.3066 17.0137C39.2415 17.1439 39.2741 17.2415 39.4043 17.3066C39.4368 17.2415 39.4857 17.1439 39.5508 17.0137C39.6159 16.8835 39.5996 16.7695 39.502 16.6719ZM39.2578 17.3555C38.8021 17.7135 38.4766 18.1693 38.2812 18.7227C38.5742 18.625 38.7858 18.4297 38.916 18.1367C39.0788 17.8438 39.1927 17.5833 39.2578 17.3555ZM41.3574 20.3828C41.39 20.1224 41.3411 19.9759 41.2109 19.9434C41.0807 19.8783 40.9668 19.9271 40.8691 20.0898C40.804 20.0573 40.6738 20.0573 40.4785 20.0898C40.2832 20.1224 40.2344 20.2201 40.332 20.3828C39.9414 20.5456 39.7135 20.6921 39.6484 20.8223C39.6159 20.9199 39.5671 21.0013 39.502 21.0664C39.5671 21.1641 39.5671 21.278 39.502 21.4082C39.4368 21.5384 39.388 21.6361 39.3555 21.7012C39.6159 21.6361 39.7786 21.6035 39.8438 21.6035C39.9414 21.6035 40.0065 21.571 40.0391 21.5059C40.0716 21.1152 40.1042 20.9362 40.1367 20.9688C40.1693 20.9688 40.2344 20.985 40.332 21.0176C40.3971 20.9199 40.4785 20.8223 40.5762 20.7246C40.6738 20.627 40.7552 20.5456 40.8203 20.4805C40.918 20.3177 40.9831 20.2689 41.0156 20.334C41.0807 20.3991 41.1947 20.4154 41.3574 20.3828ZM40.7715 19.0156C40.6738 18.8529 40.6413 18.6738 40.6738 18.4785C40.7064 18.2507 40.5924 18.1204 40.332 18.0879C40.2669 18.153 40.2181 18.2344 40.1855 18.332C40.153 18.4297 40.0553 18.4622 39.8926 18.4297C39.8926 18.8529 39.681 19.097 39.2578 19.1621C39.0951 19.3249 39.0137 19.4551 39.0137 19.5527C39.0462 19.6504 39.0299 19.6992 38.9648 19.6992C38.8672 19.7969 38.8021 19.8945 38.7695 19.9922C38.737 20.0573 38.6393 20.0898 38.4766 20.0898C38.5742 20.3503 38.5417 20.4805 38.3789 20.4805C38.2161 20.4805 38.1022 20.5456 38.0371 20.6758C37.8418 21.0013 37.6628 21.4733 37.5 22.0918C37.8906 22.222 38.151 22.3034 38.2812 22.3359C38.4115 22.3685 38.4766 22.3034 38.4766 22.1406C38.4115 22.0755 38.3301 22.0267 38.2324 21.9941C38.1348 21.9616 38.0208 21.9128 37.8906 21.8477C38.1836 21.6523 38.3464 21.5384 38.3789 21.5059C38.4115 21.4408 38.4277 21.3919 38.4277 21.3594C38.4603 21.2943 38.5091 21.2454 38.5742 21.2129C38.6393 21.1803 38.7533 21.1641 38.916 21.1641C38.9486 21.0013 39.0299 20.8874 39.1602 20.8223C39.2904 20.7572 39.4043 20.6432 39.502 20.4805C39.3717 20.3503 39.2578 20.3991 39.1602 20.627C39.0625 20.8548 38.9486 20.9362 38.8184 20.8711C38.8509 20.5456 38.9974 20.3014 39.2578 20.1387C39.4206 19.9434 39.6159 19.862 39.8438 19.8945C40.1693 19.7969 40.3483 19.7643 40.3809 19.7969C40.446 19.7969 40.4948 19.8294 40.5273 19.8945C40.3646 19.6667 40.2344 19.5527 40.1367 19.5527C40.0716 19.5202 40.0391 19.4551 40.0391 19.3574C40.2995 19.3574 40.5436 19.2435 40.7715 19.0156ZM41.9922 23.8008C41.8294 23.931 41.6504 24.0286 41.4551 24.0938C41.2598 24.1589 41.1296 24.3053 41.0645 24.5332C41.1621 24.3053 41.1947 24.1589 41.1621 24.0938C41.1296 23.9961 41.097 23.9147 41.0645 23.8496C41.097 23.5566 41.0319 23.4264 40.8691 23.459C40.7389 23.4915 40.6413 23.5078 40.5762 23.5078C40.6738 23.4102 40.7878 23.3451 40.918 23.3125C41.0807 23.2474 41.2272 23.1823 41.3574 23.1172C41.4551 22.6615 41.5527 22.3522 41.6504 22.1895C41.7806 22.0267 41.7318 21.8639 41.5039 21.7012C41.569 21.4733 41.5527 21.3268 41.4551 21.2617C41.3574 21.1641 41.3574 21.0339 41.4551 20.8711C41.1621 21.0013 40.9831 21.0339 40.918 20.9688C40.8854 20.9036 40.7715 20.8874 40.5762 20.9199C40.3809 21.2454 40.2344 21.4896 40.1367 21.6523C40.0716 21.7826 39.9251 21.8639 39.6973 21.8965C39.5671 22.222 39.4043 22.4173 39.209 22.4824C38.9486 22.3197 38.7207 22.3034 38.5254 22.4336C38.3626 22.5312 38.1999 22.6615 38.0371 22.8242C38.1999 22.8242 38.3138 22.8405 38.3789 22.873C38.4766 22.873 38.6068 22.8568 38.7695 22.8242C38.5742 22.987 38.4603 23.1009 38.4277 23.166C38.3952 23.2311 38.3301 23.2799 38.2324 23.3125C38.0046 23.4427 37.8743 23.4753 37.8418 23.4102C37.8092 23.3451 37.7279 23.3613 37.5977 23.459C37.4349 23.752 37.3372 23.9147 37.3047 23.9473C37.2721 23.9473 37.2721 23.9798 37.3047 24.0449C37.0443 24.2728 36.8978 24.403 36.8652 24.4355C36.8327 24.4681 36.8327 24.5332 36.8652 24.6309C36.9629 24.7936 36.9629 24.9889 36.8652 25.2168C36.7676 25.4447 36.8164 25.64 37.0117 25.8027C37.2721 25.8678 37.4023 25.819 37.4023 25.6562C37.4349 25.4935 37.5326 25.3796 37.6953 25.3145C37.793 25.3796 37.8906 25.4447 37.9883 25.5098C38.1185 25.5423 38.265 25.526 38.4277 25.4609C38.6882 25.1354 38.9323 24.8424 39.1602 24.582C39.4206 24.3216 39.6973 24.0938 39.9902 23.8984C40.2507 24.0612 40.2669 24.2402 40.0391 24.4355C39.8112 24.5983 39.6484 24.7936 39.5508 25.0215C39.5182 25.0215 39.4368 25.1029 39.3066 25.2656C39.1764 25.4284 39.0951 25.5749 39.0625 25.7051C38.8997 25.4121 38.7533 25.2982 38.623 25.3633C38.6882 25.6562 38.7044 25.8353 38.6719 25.9004C38.6393 25.9329 38.5579 25.9492 38.4277 25.9492C38.0371 25.7539 37.8092 25.7539 37.7441 25.9492C38.0371 25.7865 38.2487 25.8353 38.3789 26.0957C38.0859 26.3887 37.9232 26.7467 37.8906 27.1699C37.9883 27.2025 38.1022 27.2188 38.2324 27.2188C38.3626 27.1862 38.4277 27.2025 38.4277 27.2676C38.265 27.3327 38.1673 27.4629 38.1348 27.6582C38.1348 27.821 38.0697 27.9512 37.9395 28.0488C38.3952 28.3092 38.6556 28.293 38.7207 28C38.7858 27.707 38.916 27.5605 39.1113 27.5605C39.2741 27.2025 39.4043 26.9583 39.502 26.8281C39.6322 26.6979 39.7461 26.5677 39.8438 26.4375C39.9414 26.3073 40.0228 26.1771 40.0879 26.0469C40.153 25.9167 40.1367 25.7865 40.0391 25.6562C40.1693 25.7214 40.2669 25.7376 40.332 25.7051C40.4297 25.64 40.5111 25.5749 40.5762 25.5098C40.7715 25.3145 40.9505 25.0866 41.1133 24.8262C41.276 24.5658 41.5039 24.3542 41.7969 24.1914L41.9922 23.8008ZM42.5293 25.4121C42.2689 25.4772 42.0736 25.5911 41.9434 25.7539C41.8457 25.9167 41.6829 26.0306 41.4551 26.0957C41.2923 26.584 41.0482 26.9258 40.7227 27.1211C40.4297 27.3164 40.1693 27.5931 39.9414 27.9512C39.8438 28.2116 39.7135 28.3418 39.5508 28.3418C39.5182 28.6348 39.388 28.8464 39.1602 28.9766C38.9648 29.1068 38.8184 29.3021 38.7207 29.5625C38.8509 29.6276 38.9648 29.6602 39.0625 29.6602C39.1927 29.6276 39.2904 29.5788 39.3555 29.5137C39.4857 29.2533 39.5833 29.0579 39.6484 28.9277C39.7461 28.765 39.8763 28.6673 40.0391 28.6348C40.1693 28.2116 40.332 27.9837 40.5273 27.9512C40.7552 27.8861 40.8529 27.7721 40.8203 27.6094C41.0482 27.349 41.2598 27.1211 41.4551 26.9258C41.6829 26.7305 41.8783 26.5352 42.041 26.3398C42.1387 26.0469 42.2526 25.8678 42.3828 25.8027C42.513 25.7051 42.5618 25.5749 42.5293 25.4121ZM46.7773 33.6641L46.3379 33.2734C46.3704 33.4362 46.3216 33.5827 46.1914 33.7129C46.0938 33.8431 46.1426 33.9408 46.3379 34.0059C46.3053 33.8105 46.3379 33.7292 46.4355 33.7617C46.5658 33.7617 46.6797 33.7292 46.7773 33.6641ZM39.9902 27.707C39.8926 27.8372 39.7949 27.9186 39.6973 27.9512C39.6322 27.9512 39.5996 28 39.5996 28.0977C39.7298 28.0977 39.8112 28.0651 39.8438 28C39.8763 27.9023 39.9251 27.8047 39.9902 27.707ZM43.0664 28.3418C43.0013 27.9837 42.985 27.6908 43.0176 27.4629C43.0501 27.235 43.0013 27.0397 42.8711 26.877C42.5456 26.9095 42.3177 27.056 42.1875 27.3164C42.0573 27.5443 41.8945 27.6745 41.6992 27.707C41.6992 27.8698 41.6504 27.9837 41.5527 28.0488C41.4876 28.1139 41.4225 28.2116 41.3574 28.3418C41.097 28.6022 40.918 28.8138 40.8203 28.9766C40.7552 29.1068 40.625 29.1719 40.4297 29.1719C40.3646 29.3997 40.2507 29.6113 40.0879 29.8066C39.9577 30.002 39.7461 30.1484 39.4531 30.2461C39.5182 30.4089 39.502 30.5391 39.4043 30.6367C39.3066 30.7344 39.1764 30.8158 39.0137 30.8809C38.9486 31.2389 39.0137 31.4668 39.209 31.5645C39.4368 31.6621 39.6159 31.6947 39.7461 31.6621C39.9089 31.4342 39.9577 31.2064 39.8926 30.9785C40.1204 30.9134 40.2832 30.7832 40.3809 30.5879C40.4785 30.3926 40.6413 30.2461 40.8691 30.1484C40.9017 30.0508 40.9505 29.9694 41.0156 29.9043C41.1133 29.8392 41.2272 29.7578 41.3574 29.6602C41.3249 29.4323 41.4714 29.2207 41.7969 29.0254C42.1549 28.8301 42.3828 28.6836 42.4805 28.5859C42.7734 28.4883 42.9362 28.4395 42.9688 28.4395C43.0339 28.4395 43.0664 28.4069 43.0664 28.3418ZM44.5312 32.5898C44.694 32.362 44.7591 32.1341 44.7266 31.9062C44.694 31.6784 44.6126 31.4668 44.4824 31.2715C44.3848 31.0436 44.2546 30.832 44.0918 30.6367C43.9616 30.4089 43.8639 30.1973 43.7988 30.002C43.5384 30.002 43.3594 30.0833 43.2617 30.2461C43.1966 30.4089 43.1152 30.5228 43.0176 30.5879C42.9525 30.2949 42.9525 30.0996 43.0176 30.002C43.0827 29.8717 43.1478 29.7578 43.2129 29.6602C43.3105 29.5625 43.3919 29.4648 43.457 29.3672C43.5221 29.237 43.5221 29.0905 43.457 28.9277C43.1966 28.8952 43.0339 28.9928 42.9688 29.2207C42.9036 29.416 42.7572 29.4811 42.5293 29.416C42.1387 29.8392 41.8783 30.181 41.748 30.4414C41.6178 30.7018 41.4388 30.7669 41.2109 30.6367C41.1458 30.7344 41.1133 30.8483 41.1133 30.9785C41.1133 31.0762 41.0645 31.1576 40.9668 31.2227C40.804 31.2878 40.6901 31.3366 40.625 31.3691C40.5599 31.3691 40.4948 31.4017 40.4297 31.4668C40.3971 31.6621 40.2832 31.9062 40.0879 32.1992C39.9251 32.4596 39.7624 32.7201 39.5996 32.9805C39.7949 33.2734 39.8926 33.4036 39.8926 33.3711C39.8926 33.3385 39.9251 33.3385 39.9902 33.3711C40.0553 33.1432 40.1693 32.9642 40.332 32.834C40.4948 32.6712 40.6576 32.5247 40.8203 32.3945C41.0156 32.2643 41.1784 32.1504 41.3086 32.0527C41.4714 31.9225 41.569 31.7598 41.6016 31.5645C41.8294 31.2715 41.9759 31.1087 42.041 31.0762C42.1387 31.0111 42.2201 30.9297 42.2852 30.832C42.3503 30.832 42.4316 30.8646 42.5293 30.9297C42.6595 30.9622 42.7734 30.946 42.8711 30.8809C43.0664 31.1738 43.1641 31.3854 43.1641 31.5156C43.1641 31.6458 43.1152 31.7923 43.0176 31.9551C42.9199 32.0853 42.806 32.2155 42.6758 32.3457C42.5456 32.4759 42.4479 32.6061 42.3828 32.7363C42.1224 33.485 41.6829 34.0221 41.0645 34.3477C40.804 34.6732 40.7064 34.8359 40.7715 34.8359C40.8366 34.8359 40.8529 34.8848 40.8203 34.9824C40.6901 35.3079 40.6087 35.6172 40.5762 35.9102C40.5436 36.2031 40.7552 36.3659 41.2109 36.3984C41.4388 36.138 41.569 35.9427 41.6016 35.8125C41.6341 35.6497 41.6829 35.6335 41.748 35.7637C41.9759 35.4707 42.1061 35.3405 42.1387 35.373C42.1712 35.4056 42.2201 35.4219 42.2852 35.4219C42.4154 35.194 42.4805 35.0312 42.4805 34.9336C42.513 34.8034 42.627 34.7708 42.8223 34.8359C42.7897 34.5755 42.8385 34.4128 42.9688 34.3477C43.1315 34.25 43.2943 34.1686 43.457 34.1035C43.457 33.8431 43.4896 33.6966 43.5547 33.6641C43.6523 33.599 43.7337 33.5339 43.7988 33.4688C43.929 33.2083 44.0267 33.013 44.0918 32.8828C44.1895 32.7526 44.3359 32.6549 44.5312 32.5898ZM42.1875 32.0527C42.0247 32.1178 41.9108 32.2318 41.8457 32.3945C41.8132 32.5247 41.6829 32.5736 41.4551 32.541C41.4876 32.6712 41.5365 32.7363 41.6016 32.7363C41.6992 32.7038 41.7969 32.6387 41.8945 32.541C41.9922 32.4434 42.0736 32.3457 42.1387 32.248C42.2038 32.1504 42.2201 32.0853 42.1875 32.0527ZM45.1172 32.9805C44.8568 33.013 44.6777 33.1107 44.5801 33.2734C44.4824 33.4362 44.3197 33.5339 44.0918 33.5664C43.9941 33.8594 43.8477 34.1361 43.6523 34.3965C43.457 34.6243 43.2292 34.8522 42.9688 35.0801C42.9688 35.3405 42.8874 35.5195 42.7246 35.6172C42.5618 35.6823 42.3991 35.7311 42.2363 35.7637C42.2363 35.9264 42.1875 36.0566 42.0898 36.1543C41.9922 36.252 41.8783 36.3496 41.748 36.4473C41.6504 36.5449 41.5527 36.6589 41.4551 36.7891C41.39 36.8867 41.39 37.0332 41.4551 37.2285C41.9759 36.8053 42.3503 36.4798 42.5781 36.252C42.806 35.9915 43.0176 35.7474 43.2129 35.5195C43.4408 35.2591 43.6523 35.015 43.8477 34.7871C44.0755 34.5267 44.3197 34.2988 44.5801 34.1035C44.6126 33.8431 44.7103 33.6641 44.873 33.5664C45.0684 33.4688 45.1497 33.2734 45.1172 32.9805ZM41.5039 32.9316C41.3411 32.9967 41.1784 33.1432 41.0156 33.3711C40.8854 33.599 40.8203 33.7943 40.8203 33.957C40.9831 33.957 41.0482 33.9082 41.0156 33.8105C41.0156 33.6803 41.0319 33.5664 41.0645 33.4688C41.3249 33.2734 41.4714 33.0944 41.5039 32.9316ZM47.2168 39.6211C47.0866 39.6211 46.9564 39.6699 46.8262 39.7676C46.7285 39.8327 46.7122 39.8978 46.7773 39.9629C46.875 39.8978 46.9564 39.849 47.0215 39.8164C47.1191 39.7839 47.1842 39.7188 47.2168 39.6211ZM45.7031 34.25C45.2148 34.6081 44.7754 34.9499 44.3848 35.2754C44.0267 35.5684 43.6686 35.8451 43.3105 36.1055C43.278 36.3659 43.1641 36.61 42.9688 36.8379C42.7734 37.0658 42.5293 37.2611 42.2363 37.4238C42.1712 37.6842 42.0736 37.8958 41.9434 38.0586C41.8457 38.1888 41.7318 38.3353 41.6016 38.498C41.8945 38.6283 42.0247 38.6608 41.9922 38.5957C41.9922 38.5306 42.0736 38.5306 42.2363 38.5957C42.334 38.3027 42.3665 38.14 42.334 38.1074C42.3014 38.0423 42.2852 37.9772 42.2852 37.9121C42.4479 37.9447 42.5618 37.9284 42.627 37.8633C42.7246 37.7982 42.806 37.7168 42.8711 37.6191C42.9688 37.5215 43.0501 37.4238 43.1152 37.3262C43.1803 37.2285 43.2943 37.1797 43.457 37.1797C43.6523 36.9193 43.7337 36.7728 43.7012 36.7402C43.6686 36.7077 43.6361 36.6589 43.6035 36.5938C43.8965 36.3659 44.1569 36.1055 44.3848 35.8125C44.6126 35.5195 44.9056 35.3079 45.2637 35.1777C45.4915 34.8197 45.638 34.5104 45.7031 34.25ZM46.582 36.4961C46.4193 36.4635 46.3704 36.3659 46.4355 36.2031C46.5332 36.0404 46.5658 35.9264 46.5332 35.8613C46.4355 35.7637 46.3379 35.7311 46.2402 35.7637C46.1426 35.7962 46.0449 35.8451 45.9473 35.9102C45.8496 35.9753 45.752 36.0566 45.6543 36.1543C45.5566 36.2194 45.4427 36.2194 45.3125 36.1543C45.2799 36.3822 45.2311 36.5449 45.166 36.6426C45.1335 36.7402 45.0358 36.7728 44.873 36.7402C44.9056 36.9681 44.8405 37.1146 44.6777 37.1797C44.5475 37.2122 44.4336 37.2936 44.3359 37.4238C44.401 37.6842 44.3034 37.8307 44.043 37.8633C43.7826 37.8958 43.6035 37.9935 43.5059 38.1562C43.3757 38.5469 43.1803 38.8724 42.9199 39.1328C42.6595 39.3932 42.4479 39.7025 42.2852 40.0605C42.3503 40.1582 42.3991 40.2559 42.4316 40.3535C42.4642 40.4186 42.4805 40.5163 42.4805 40.6465C42.6432 40.6465 42.7572 40.6139 42.8223 40.5488C42.9199 40.4512 43.0013 40.3535 43.0664 40.2559C43.1315 40.1582 43.1966 40.0768 43.2617 40.0117C43.3268 39.9466 43.4245 39.9303 43.5547 39.9629C43.7174 39.7025 43.8151 39.5072 43.8477 39.377C43.8802 39.2467 43.9616 39.2305 44.0918 39.3281C44.2546 38.7096 44.5638 38.2539 45.0195 37.9609C45.5078 37.6354 45.8984 37.2285 46.1914 36.7402L46.582 36.4961ZM40.5273 33.9082C40.4622 33.9733 40.3971 34.071 40.332 34.2012C40.2995 34.2988 40.2507 34.3965 40.1855 34.4941C40.3809 34.5592 40.5273 34.5104 40.625 34.3477C40.7552 34.1523 40.7227 34.0059 40.5273 33.9082ZM47.4121 38.0586C47.3796 37.7982 47.2656 37.668 47.0703 37.668C46.9076 37.6354 46.7285 37.6191 46.5332 37.6191C46.5983 37.8145 46.5495 37.9121 46.3867 37.9121C46.2565 37.8796 46.1426 37.8958 46.0449 37.9609C45.8822 38.319 45.7845 38.5469 45.752 38.6445C45.6868 38.8398 45.6055 38.9701 45.5078 39.0352C45.4102 39.1003 45.3288 39.1003 45.2637 39.0352C45.166 39.2305 45.0521 39.377 44.9219 39.4746C44.8242 39.5723 44.7266 39.6862 44.6289 39.8164C44.5638 39.9466 44.4824 40.0768 44.3848 40.207C44.2871 40.3047 44.1569 40.3698 43.9941 40.4023C43.7663 40.8906 43.5384 41.1836 43.3105 41.2812C43.1152 41.3464 42.9036 41.444 42.6758 41.5742C42.6758 41.8021 42.7246 41.9811 42.8223 42.1113C42.9525 42.2415 42.9525 42.4043 42.8223 42.5996C43.0501 42.6973 43.2292 42.7461 43.3594 42.7461C43.5221 42.7135 43.6361 42.6647 43.7012 42.5996C43.7337 42.4694 43.7826 42.3555 43.8477 42.2578C43.9128 42.1602 43.9941 42.0788 44.0918 42.0137L44.5312 41.6719C44.4336 41.4115 44.4824 41.2487 44.6777 41.1836C44.873 41.0859 44.9544 40.972 44.9219 40.8418C45.1497 40.7116 45.3125 40.6302 45.4102 40.5977C45.5404 40.5651 45.638 40.5163 45.7031 40.4512C45.931 39.8001 46.1589 39.4421 46.3867 39.377C46.6146 39.2793 46.8262 39.1165 47.0215 38.8887C47.0866 38.791 47.168 38.6771 47.2656 38.5469C47.3958 38.3841 47.4447 38.2214 47.4121 38.0586ZM47.7539 39.8652C47.5911 39.8978 47.4772 39.9629 47.4121 40.0605C47.347 40.1257 47.2168 40.1257 47.0215 40.0605C46.9238 40.2233 46.8587 40.3698 46.8262 40.5C46.7936 40.5977 46.696 40.6139 46.5332 40.5488C46.3704 40.8418 46.1914 41.1022 45.9961 41.3301C45.8008 41.5579 45.6055 41.8021 45.4102 42.0625C45.1823 42.2904 44.987 42.502 44.8242 42.6973C44.6615 42.86 44.4824 42.9902 44.2871 43.0879C44.2546 43.1855 44.222 43.2669 44.1895 43.332C44.1569 43.3646 44.1243 43.4134 44.0918 43.4785C44.0592 43.5111 44.0267 43.5436 43.9941 43.5762C43.9941 43.5762 43.9616 43.5436 43.8965 43.4785C43.8965 43.7715 43.8477 43.9505 43.75 44.0156C43.6849 44.0482 43.6198 44.1296 43.5547 44.2598C43.8802 44.3249 44.0918 44.3249 44.1895 44.2598C44.3197 44.1947 44.4499 44.1296 44.5801 44.0645C44.8405 43.7064 45.0033 43.4134 45.0684 43.1855C45.1335 42.9251 45.3125 42.7786 45.6055 42.7461C45.9961 42.1276 46.4193 41.6556 46.875 41.3301C47.3307 41.0046 47.6237 40.5163 47.7539 39.8652ZM41.2109 39.7676C41.276 39.377 41.276 38.9863 41.2109 38.5957C41.1458 38.2051 40.9342 37.9121 40.5762 37.7168C40.7064 37.847 40.6901 37.9447 40.5273 38.0098C40.3646 38.0423 40.2507 38.1237 40.1855 38.2539C40.0228 37.9609 39.974 37.7168 40.0391 37.5215C40.1367 37.3262 40.2344 37.1146 40.332 36.8867C40.2018 36.6589 40.1042 36.431 40.0391 36.2031C40.0065 35.9427 39.9577 35.6986 39.8926 35.4707C39.86 35.2103 39.7949 34.9824 39.6973 34.7871C39.5996 34.5918 39.4368 34.4453 39.209 34.3477C39.3066 34.2174 39.3392 34.0384 39.3066 33.8105C39.3066 33.5501 39.209 33.4199 39.0137 33.4199C38.9486 33.5501 38.7858 33.6966 38.5254 33.8594C38.2975 33.9896 38.0859 33.9408 37.8906 33.7129C38.0859 33.3548 38.1673 33.1595 38.1348 33.127C38.1022 33.0618 38.0859 32.9967 38.0859 32.9316C38.4115 32.7689 38.6068 32.6712 38.6719 32.6387C38.737 32.6061 38.8021 32.5573 38.8672 32.4922C38.6393 32.1667 38.4928 31.7435 38.4277 31.2227C38.3626 31.1576 38.2812 31.1087 38.1836 31.0762C38.0859 31.0111 38.0371 30.8971 38.0371 30.7344C38.2975 30.4089 38.3301 30.1647 38.1348 30.002C37.9395 29.8392 37.793 29.6927 37.6953 29.5625C37.8581 29.3672 37.8581 29.1393 37.6953 28.8789C37.5651 28.5859 37.4674 28.3255 37.4023 28.0977C37.2396 28.0651 37.0931 28.0326 36.9629 28C36.8652 27.9349 36.8001 27.821 36.7676 27.6582C36.8327 27.5605 36.8652 27.3164 36.8652 26.9258C36.7025 26.7956 36.5723 26.763 36.4746 26.8281C36.377 26.8607 36.2793 26.8118 36.1816 26.6816C36.0189 26.9095 35.8887 27.1699 35.791 27.4629C35.7259 27.7559 35.6445 28.0488 35.5469 28.3418C35.4492 28.6348 35.3353 28.9115 35.2051 29.1719C35.1074 29.4323 34.9609 29.6602 34.7656 29.8555C34.8633 30.1484 34.7819 30.4577 34.5215 30.7832C34.2936 31.0762 34.196 31.3854 34.2285 31.7109C34.1634 31.9388 34.0658 32.0853 33.9355 32.1504C33.8379 32.2155 33.8542 32.3294 33.9844 32.4922C33.6589 32.9479 33.4473 33.4688 33.3496 34.0547C33.252 34.6081 33.0729 35.0964 32.8125 35.5195C32.6497 35.9753 32.5033 36.3659 32.373 36.6914C32.2754 36.9844 32.1777 37.3099 32.0801 37.668C32.015 38.026 31.9499 38.4004 31.8848 38.791C31.8197 39.1491 31.7383 39.5072 31.6406 39.8652C31.7383 39.8978 31.8522 39.9303 31.9824 39.9629C32.1126 39.9629 32.2428 39.9954 32.373 40.0605C32.9264 39.8978 33.5775 39.8652 34.3262 39.9629C35.2051 40.0931 36.1003 40.1094 37.0117 40.0117C37.9232 39.8815 38.8346 39.8815 39.7461 40.0117C39.9414 39.9466 40.1693 39.9141 40.4297 39.9141C40.6901 39.8815 40.9505 39.8327 41.2109 39.7676ZM52.832 49.3867C52.6693 49.4518 52.5391 49.5007 52.4414 49.5332C52.3438 49.5332 52.1973 49.5658 52.002 49.6309C51.9694 49.7936 51.9857 49.8913 52.0508 49.9238C52.1484 49.9564 52.181 50.0378 52.1484 50.168C52.4089 49.9401 52.5716 49.7936 52.6367 49.7285C52.7344 49.6634 52.7995 49.5495 52.832 49.3867ZM48.0469 41.4766C47.8516 41.5091 47.7051 41.5742 47.6074 41.6719C47.5098 41.7695 47.4284 41.8835 47.3633 42.0137C47.2982 42.1113 47.2168 42.2253 47.1191 42.3555C47.0215 42.4531 46.8913 42.5182 46.7285 42.5508C46.3704 43.2018 45.931 43.7552 45.4102 44.2109C44.9219 44.6667 44.4661 45.1875 44.043 45.7734C44.1406 46.1315 44.2057 46.3757 44.2383 46.5059C44.3034 46.6361 44.4173 46.7337 44.5801 46.7988C44.6777 46.5059 44.7917 46.2943 44.9219 46.1641C45.0846 46.0339 45.1823 45.8711 45.2148 45.6758C45.4427 45.513 45.5892 45.2852 45.6543 44.9922C45.752 44.6667 45.9798 44.4388 46.3379 44.3086C46.5332 44.0807 46.6634 43.9505 46.7285 43.918C46.7936 43.8529 46.8424 43.7878 46.875 43.7227C46.9076 43.6576 46.9401 43.5924 46.9727 43.5273C47.0052 43.4622 47.0866 43.4297 47.2168 43.4297C47.1842 43.2344 47.2168 43.0716 47.3145 42.9414C47.4447 42.8112 47.5586 42.681 47.6562 42.5508C47.7865 42.4206 47.9004 42.2741 47.998 42.1113C48.0957 41.9486 48.112 41.737 48.0469 41.4766ZM54.0039 52.2188C54.0365 52.0234 53.9876 51.9258 53.8574 51.9258C53.7272 51.8932 53.597 51.877 53.4668 51.877C53.4993 52.2025 53.5482 52.3327 53.6133 52.2676C53.7109 52.2025 53.8411 52.1862 54.0039 52.2188ZM52.8809 51.584C52.8483 51.2585 52.6855 51.0957 52.3926 51.0957C52.0996 51.0632 51.9043 51.1771 51.8066 51.4375C51.9043 51.4049 51.9857 51.3724 52.0508 51.3398C52.1159 51.3073 52.2135 51.291 52.3438 51.291C52.3763 51.3887 52.4577 51.4863 52.5879 51.584C52.7181 51.6491 52.8158 51.6491 52.8809 51.584ZM48.6328 43.8203C48.5352 43.4948 48.4538 43.332 48.3887 43.332C48.3236 43.332 48.2422 43.3646 48.1445 43.4297C47.9818 43.5924 47.8516 43.7878 47.7539 44.0156C47.6888 44.2435 47.6074 44.4388 47.5098 44.6016C47.4121 44.7318 47.2331 44.7806 46.9727 44.748C46.7122 44.6829 46.5495 44.6829 46.4844 44.748C46.582 44.8783 46.696 44.9434 46.8262 44.9434C46.9564 44.9434 47.0866 44.9922 47.2168 45.0898C46.8262 45.3177 46.5495 45.5618 46.3867 45.8223C46.224 46.0501 46.0124 46.1966 45.752 46.2617C45.6868 46.4896 45.6706 46.7174 45.7031 46.9453C45.4753 46.9779 45.2962 47.0592 45.166 47.1895C45.0358 47.2871 44.8405 47.3034 44.5801 47.2383C44.7428 47.4336 44.8568 47.6452 44.9219 47.873C45.0195 48.1009 45.1986 48.2311 45.459 48.2637C45.6543 48.2311 45.7845 48.2311 45.8496 48.2637C45.9473 48.2637 46.0124 48.2311 46.0449 48.166C45.9798 48.1009 45.931 48.0358 45.8984 47.9707C45.8659 47.873 45.8171 47.7754 45.752 47.6777C45.8822 47.515 46.0775 47.3522 46.3379 47.1895C46.5983 46.9941 46.7936 46.8639 46.9238 46.7988C46.8913 46.5384 46.9564 46.3919 47.1191 46.3594C47.3145 46.2943 47.4121 46.1478 47.4121 45.9199C47.5749 45.9525 47.6562 45.8874 47.6562 45.7246C47.6888 45.5618 47.7865 45.513 47.9492 45.5781C48.0143 45.3177 48.1608 45.1875 48.3887 45.1875C48.4863 44.9596 48.6165 44.748 48.7793 44.5527C48.9421 44.3249 48.8932 44.0807 48.6328 43.8203ZM52.2461 51.6816C51.888 51.7467 51.7253 51.7956 51.7578 51.8281C51.7904 51.8607 51.8066 51.9258 51.8066 52.0234C51.9368 52.0234 52.0345 52.0072 52.0996 51.9746C52.1973 51.9421 52.2461 51.8444 52.2461 51.6816ZM49.6094 47.0918C49.5117 46.8965 49.349 46.8314 49.1211 46.8965C48.9258 46.929 48.7956 46.9453 48.7305 46.9453C48.763 46.7174 48.8281 46.6361 48.9258 46.7012C49.056 46.7337 49.1862 46.7174 49.3164 46.6523C49.3164 46.4896 49.3164 46.3268 49.3164 46.1641C49.3164 46.0013 49.349 45.8223 49.4141 45.627C49.2513 45.4642 49.0397 45.4479 48.7793 45.5781C48.5514 45.6758 48.4212 45.8385 48.3887 46.0664C48.0632 46.099 47.8841 46.2129 47.8516 46.4082C47.8516 46.6035 47.6888 46.7174 47.3633 46.75C47.2331 47.1081 47.0866 47.3685 46.9238 47.5312C46.7936 47.694 46.6146 47.8242 46.3867 47.9219C46.3867 48.1172 46.3216 48.2962 46.1914 48.459C46.0938 48.6217 45.9473 48.7357 45.752 48.8008C45.7845 49.0612 45.7357 49.2891 45.6055 49.4844C45.5078 49.6471 45.5404 49.8262 45.7031 50.0215C45.8984 50.054 46.0124 50.0052 46.0449 49.875C46.0775 49.7448 46.1589 49.6471 46.2891 49.582C46.224 49.4193 46.2565 49.2565 46.3867 49.0938C46.5495 48.8984 46.7611 48.8008 47.0215 48.8008C46.9889 48.7031 47.0215 48.6055 47.1191 48.5078C47.2168 48.3776 47.3145 48.2474 47.4121 48.1172C47.5749 47.8893 47.7214 47.7754 47.8516 47.7754C47.9818 47.7428 48.1283 47.7266 48.291 47.7266C48.2585 47.4336 48.2585 47.2708 48.291 47.2383C48.3236 47.2057 48.3724 47.1569 48.4375 47.0918C48.5026 47.222 48.584 47.3197 48.6816 47.3848C48.8118 47.4173 48.9583 47.4499 49.1211 47.4824C49.2513 47.3197 49.4141 47.1895 49.6094 47.0918ZM51.8066 50.9004C51.416 50.9004 51.1556 50.9655 51.0254 51.0957C50.9277 51.1934 50.765 51.2585 50.5371 51.291C50.5697 51.4538 50.5208 51.5514 50.3906 51.584C50.293 51.6165 50.179 51.6491 50.0488 51.6816C50.0488 51.9421 49.9837 52.1211 49.8535 52.2188C49.7233 52.3164 49.6582 52.4629 49.6582 52.6582C49.7884 52.7233 49.8861 52.7233 49.9512 52.6582C50.0488 52.5931 50.1302 52.5117 50.1953 52.4141C50.2604 52.3164 50.3255 52.235 50.3906 52.1699C50.4883 52.1048 50.6022 52.1048 50.7324 52.1699C50.765 51.9746 50.8301 51.8281 50.9277 51.7305C51.0579 51.6328 51.2044 51.5514 51.3672 51.4863C51.3346 51.291 51.3672 51.1608 51.4648 51.0957C51.5951 51.0306 51.709 50.9655 51.8066 50.9004ZM50.6348 49.9727C50.472 49.9401 50.3743 49.9889 50.3418 50.1191C50.3092 50.2168 50.2116 50.2331 50.0488 50.168C50.1139 50.3958 50.0814 50.5098 49.9512 50.5098C49.821 50.4772 49.707 50.4772 49.6094 50.5098C49.5768 50.7702 49.4629 51.0143 49.2676 51.2422C49.0723 51.4375 48.8444 51.6165 48.584 51.7793C49.0397 51.7142 49.3001 51.584 49.3652 51.3887C49.4629 51.1934 49.6257 51.1283 49.8535 51.1934C49.8535 50.8678 49.9674 50.6562 50.1953 50.5586C50.4232 50.4284 50.5697 50.2331 50.6348 49.9727ZM49.9023 48.0684C49.5768 48.1986 49.3001 48.3613 49.0723 48.5566C48.8444 48.752 48.6165 48.9635 48.3887 49.1914C48.291 49.2891 48.1934 49.3542 48.0957 49.3867C47.998 49.4193 47.9818 49.5007 48.0469 49.6309C47.7214 49.8913 47.5586 49.9727 47.5586 49.875C47.5911 49.7448 47.5586 49.696 47.4609 49.7285C47.4609 50.1191 47.3796 50.347 47.2168 50.4121C47.054 50.4447 46.9076 50.4447 46.7773 50.4121C46.7773 50.7051 46.7448 50.9167 46.6797 51.0469C46.6146 51.1445 46.5007 51.2259 46.3379 51.291C46.3704 51.4212 46.3379 51.5352 46.2402 51.6328C46.1751 51.6979 46.0938 51.763 45.9961 51.8281C45.8984 51.8932 45.8008 51.9746 45.7031 52.0723C45.6055 52.1699 45.5566 52.3001 45.5566 52.4629C46.0449 52.3978 46.4355 52.1862 46.7285 51.8281C47.0215 51.4375 47.2656 51.0469 47.4609 50.6562C47.6562 50.2656 47.8678 50.0215 48.0957 49.9238C48.3561 49.8262 48.5677 49.696 48.7305 49.5332C48.7956 49.6634 48.9258 49.7611 49.1211 49.8262C49.3164 49.8587 49.4792 49.8424 49.6094 49.7773C49.4466 49.6146 49.3327 49.5658 49.2676 49.6309C49.2025 49.6634 49.1211 49.6797 49.0234 49.6797C49.1211 49.2891 49.2676 49.0612 49.4629 48.9961C49.6257 48.8008 49.7884 48.6543 49.9512 48.5566C50.1139 48.4264 50.0977 48.2637 49.9023 48.0684ZM48.7793 50.5098C48.6165 50.6725 48.4375 50.819 48.2422 50.9492C48.0794 51.0794 47.9004 51.1934 47.7051 51.291C47.998 51.291 48.2096 51.2096 48.3398 51.0469C48.4701 50.8516 48.6165 50.6725 48.7793 50.5098ZM48.7793 52.5605C48.7142 52.4954 48.6816 52.3978 48.6816 52.2676C48.6816 52.1048 48.6654 51.9909 48.6328 51.9258C48.5352 52.2188 48.3073 52.4466 47.9492 52.6094C48.2096 52.7721 48.4863 52.7559 48.7793 52.5605ZM44.2383 52.4629C44.0755 52.3652 43.9453 52.3815 43.8477 52.5117C43.75 52.6419 43.6198 52.707 43.457 52.707C43.7174 52.8372 43.8802 52.8861 43.9453 52.8535C44.0104 52.821 44.0918 52.7884 44.1895 52.7559L44.2383 52.4629ZM27.6855 50.168C27.5228 50.4935 27.3438 50.7702 27.1484 50.998C26.9531 51.2259 26.7253 51.4375 26.4648 51.6328C26.7578 51.6328 26.9531 51.5514 27.0508 51.3887C27.1484 51.2259 27.2949 51.112 27.4902 51.0469C27.4577 50.8841 27.5228 50.7376 27.6855 50.6074C27.8483 50.4772 27.8483 50.3307 27.6855 50.168ZM40.4785 22.1895C40.5436 22.222 40.5762 22.2871 40.5762 22.3848C40.5762 22.4499 40.5436 22.515 40.4785 22.5801C40.446 22.6452 40.3971 22.694 40.332 22.7266C40.2669 22.7591 40.2181 22.7428 40.1855 22.6777C40.153 22.515 40.1855 22.4336 40.2832 22.4336C40.4134 22.4336 40.4785 22.3522 40.4785 22.1895ZM40.2344 23.2148C40.0716 23.2799 39.9414 23.3288 39.8438 23.3613C39.7461 23.3939 39.6647 23.5078 39.5996 23.7031C39.502 23.4753 39.4043 23.3125 39.3066 23.2148C39.502 23.0846 39.6322 23.0195 39.6973 23.0195C39.7949 22.987 39.9251 22.9707 40.0879 22.9707L40.2344 23.2148ZM40.918 24.6797C40.8529 24.8099 40.7878 24.9238 40.7227 25.0215C40.6901 25.0866 40.5924 25.1191 40.4297 25.1191C40.4297 24.8262 40.4948 24.6634 40.625 24.6309C40.7552 24.5983 40.8529 24.6146 40.918 24.6797ZM39.209 24.0449C38.9811 24.2077 38.8509 24.4193 38.8184 24.6797C38.5254 24.9401 38.3301 25.0866 38.2324 25.1191C38.1348 25.1517 38.0371 25.1842 37.9395 25.2168C37.7441 25.0215 37.679 24.9238 37.7441 24.9238C37.8092 24.9238 37.8255 24.8424 37.793 24.6797C37.9232 24.7448 38.0371 24.7448 38.1348 24.6797C38.265 24.6146 38.3789 24.5332 38.4766 24.4355C38.6068 24.3379 38.7207 24.2402 38.8184 24.1426C38.916 24.0449 39.0462 24.0124 39.209 24.0449ZM39.8438 25.998C39.7135 26.0957 39.5345 26.0957 39.3066 25.998C39.3392 25.8678 39.4368 25.8027 39.5996 25.8027C39.7624 25.8027 39.8438 25.8678 39.8438 25.998ZM39.4531 26.291C39.1602 26.6165 38.9323 26.8607 38.7695 27.0234C38.6393 27.1536 38.444 27.1699 38.1836 27.0723C38.2161 26.9746 38.2812 26.8932 38.3789 26.8281C38.4766 26.763 38.5579 26.7142 38.623 26.6816C38.7207 26.6165 38.7858 26.5677 38.8184 26.5352C38.8835 26.4701 38.8835 26.3887 38.8184 26.291C38.916 26.2259 39.0137 26.1934 39.1113 26.1934C39.2415 26.1608 39.3555 26.1934 39.4531 26.291ZM75 25.0703C74.9674 25.2331 74.9349 25.4121 74.9023 25.6074C74.9023 25.7702 74.8047 25.8678 74.6094 25.9004C74.4792 25.4447 74.4792 25.1842 74.6094 25.1191C74.7721 25.0215 74.9023 25.0052 75 25.0703ZM76.709 30.0996C76.6764 30.3275 76.5788 30.5065 76.416 30.6367C76.2533 30.7344 76.2044 30.9134 76.2695 31.1738C75.9766 30.8483 75.8789 30.7018 75.9766 30.7344C76.0742 30.7344 76.1068 30.6693 76.0742 30.5391C75.9115 30.6042 75.7812 30.7181 75.6836 30.8809C75.5859 31.0436 75.4395 31.0599 75.2441 30.9297C75.3092 30.7995 75.3906 30.7181 75.4883 30.6855C75.5859 30.653 75.6999 30.6042 75.8301 30.5391C75.9928 30.3763 76.123 30.2461 76.2207 30.1484C76.3509 30.0508 76.5137 30.0345 76.709 30.0996ZM81.4941 41.5742C81.2988 41.7044 81.1523 41.7044 81.0547 41.5742C80.957 41.4115 80.8105 41.4115 80.6152 41.5742C80.6152 41.3464 80.7129 41.2975 80.9082 41.4277C81.1361 41.5579 81.3314 41.6068 81.4941 41.5742ZM81.3965 42.0625C81.3314 42.2253 81.2337 42.3392 81.1035 42.4043C81.0059 42.4694 80.9082 42.5671 80.8105 42.6973C80.778 42.5345 80.8268 42.4043 80.957 42.3066C81.0872 42.1764 81.2337 42.0951 81.3965 42.0625ZM86.6699 52.0234C86.8327 52.1862 86.849 52.349 86.7188 52.5117C86.6211 52.6419 86.4909 52.7396 86.3281 52.8047C86.0026 52.707 85.6445 52.6908 85.2539 52.7559C84.8633 52.7884 84.4401 52.7884 83.9844 52.7559C83.5938 52.7559 83.252 52.7884 82.959 52.8535C82.666 52.9186 82.3242 52.9512 81.9336 52.9512C81.6732 52.9186 81.3802 52.9674 81.0547 53.0977C80.7617 53.2279 80.5339 53.3906 80.3711 53.5859C80.1432 53.5859 79.9642 53.5046 79.834 53.3418C79.7038 53.2116 79.5085 53.1628 79.248 53.1953C78.89 53.2604 78.4668 53.293 77.9785 53.293C77.5228 53.3255 77.1322 53.3906 76.8066 53.4883C76.5788 53.3906 76.3672 53.3581 76.1719 53.3906C76.0091 53.4232 75.8464 53.4883 75.6836 53.5859C75.5208 53.6836 75.3418 53.765 75.1465 53.8301C74.9837 53.9277 74.8047 53.9766 74.6094 53.9766C74.3815 53.5208 73.9583 53.2604 73.3398 53.1953C72.7539 53.1628 72.2656 53.2279 71.875 53.3906C71.6471 53.3255 71.3867 53.3092 71.0938 53.3418C70.8008 53.3743 70.5078 53.4069 70.2148 53.4395C69.9219 53.472 69.6452 53.472 69.3848 53.4395C69.1243 53.4395 68.8965 53.3581 68.7012 53.1953C68.8639 53 69.0918 52.8698 69.3848 52.8047C69.6777 52.707 69.9707 52.6582 70.2637 52.6582C70.4264 52.6582 70.5566 52.6908 70.6543 52.7559C70.7845 52.7884 70.8984 52.8047 70.9961 52.8047C71.4518 52.8047 71.9727 52.707 72.5586 52.5117C73.1771 52.3164 73.6491 52.0723 73.9746 51.7793C74.1699 51.5189 74.3001 51.3887 74.3652 51.3887C74.4629 51.3561 74.528 51.3073 74.5605 51.2422C74.6908 51.0794 74.7884 50.9004 74.8535 50.7051C74.9186 50.5098 75 50.3307 75.0977 50.168C75.0326 50.0378 74.9186 49.9727 74.7559 49.9727C74.5931 49.9401 74.4629 49.9564 74.3652 50.0215C74.235 49.5007 74.3001 49.1751 74.5605 49.0449C74.3652 48.1986 74.0885 47.4661 73.7305 46.8477C73.4049 46.1966 73.1445 45.4642 72.9492 44.6504C72.6888 44.4876 72.5098 44.3086 72.4121 44.1133C72.347 43.918 72.347 43.6087 72.4121 43.1855C72.2819 43.0879 72.1842 42.9414 72.1191 42.7461C72.0866 42.5182 72.054 42.2904 72.0215 42.0625C71.9889 41.8021 71.9564 41.5417 71.9238 41.2812C71.8913 41.0208 71.8262 40.8092 71.7285 40.6465C71.11 40.7441 70.3939 40.7604 69.5801 40.6953C69.2546 40.6953 68.929 40.679 68.6035 40.6465C68.278 40.6139 67.9688 40.5977 67.6758 40.5977C67.1875 40.6302 66.6829 40.7116 66.1621 40.8418C65.6738 40.9395 65.2344 40.8581 64.8438 40.5977C64.2578 40.5651 63.6556 40.5814 63.0371 40.6465C62.4512 40.7116 61.8815 40.8255 61.3281 40.9883C61.2305 41.0534 61.1654 41.1348 61.1328 41.2324C61.1003 41.3301 61.0189 41.4115 60.8887 41.4766C60.8887 41.7695 60.8236 42.0462 60.6934 42.3066C60.5957 42.5345 60.5143 42.7786 60.4492 43.0391C60.2539 43.8854 59.9609 44.5853 59.5703 45.1387C59.4401 45.5293 59.3587 45.8548 59.3262 46.1152C59.2936 46.3431 59.196 46.5384 59.0332 46.7012C59.0332 47.0267 58.9844 47.3522 58.8867 47.6777C58.8216 47.9707 58.7402 48.2637 58.6426 48.5566C58.5775 48.8496 58.5449 49.1263 58.5449 49.3867C58.5775 49.6146 58.7077 49.8262 58.9355 50.0215C58.9355 50.3796 58.9844 50.6237 59.082 50.7539C59.1797 50.8841 59.3262 51.0306 59.5215 51.1934C60.0423 51.6816 60.5306 51.877 60.9863 51.7793C61.4421 51.6816 61.8978 51.6654 62.3535 51.7305C63.0697 51.8607 63.737 51.8607 64.3555 51.7305C64.3555 51.8932 64.3717 52.0072 64.4043 52.0723C64.4368 52.1374 64.4206 52.2025 64.3555 52.2676C63.9974 52.3327 63.6393 52.3815 63.2812 52.4141C62.9557 52.4466 62.6302 52.3978 62.3047 52.2676C62.0117 52.3652 61.7188 52.4792 61.4258 52.6094C61.1654 52.707 60.8887 52.6745 60.5957 52.5117C60.3027 52.4792 60.0098 52.5443 59.7168 52.707C59.3913 52.5117 59.2122 52.4141 59.1797 52.4141C59.1797 52.3815 59.1797 52.3327 59.1797 52.2676C58.724 52.1699 58.3333 52.1699 58.0078 52.2676C57.6823 52.3652 57.3568 52.5117 57.0312 52.707C55.8594 52.6745 54.7852 52.7233 53.8086 52.8535C52.832 52.9837 51.8717 53.1139 50.9277 53.2441C50.8626 53.179 50.7812 53.1302 50.6836 53.0977C50.5534 53.0977 50.4557 53.0651 50.3906 53C53.2552 52.7396 55.4036 51.8932 56.8359 50.4609C57.0312 49.9076 57.2591 49.403 57.5195 48.9473C57.8125 48.459 58.0078 47.873 58.1055 47.1895C58.2682 47.0267 58.3496 46.8477 58.3496 46.6523C58.3496 46.457 58.3822 46.2617 58.4473 46.0664C58.61 45.513 58.8053 44.9922 59.0332 44.5039C59.2611 43.9831 59.4401 43.446 59.5703 42.8926C59.6029 42.7298 59.6354 42.5671 59.668 42.4043C59.7331 42.209 59.847 42.0625 60.0098 41.9648C59.9772 41.6068 60.0098 41.3301 60.1074 41.1348C60.2051 40.9395 60.319 40.7604 60.4492 40.5977C60.5469 40.1094 60.6283 39.6699 60.6934 39.2793C60.791 38.8887 60.9049 38.4818 61.0352 38.0586C61.0352 37.5052 61.1654 36.9355 61.4258 36.3496C61.6862 35.7311 61.8327 35.0964 61.8652 34.4453C61.8978 33.8594 62.0117 33.4199 62.207 33.127C62.4023 32.834 62.5326 32.5736 62.5977 32.3457C62.6628 32.1829 62.679 32.0365 62.6465 31.9062C62.6139 31.7435 62.6302 31.597 62.6953 31.4668C62.793 31.1738 62.9232 30.8971 63.0859 30.6367C63.2812 30.3763 63.444 30.0671 63.5742 29.709C63.6393 29.4486 63.6882 29.1719 63.7207 28.8789C63.7858 28.5859 63.9323 28.3418 64.1602 28.1465C64.0951 27.9512 64.1113 27.7721 64.209 27.6094C64.3392 27.4141 64.4043 27.235 64.4043 27.0723C64.4043 26.7793 64.4694 26.584 64.5996 26.4863C64.7298 26.3561 64.8112 26.1934 64.8438 25.998C64.8763 25.8353 64.8763 25.6888 64.8438 25.5586C64.8438 25.3958 64.9251 25.2331 65.0879 25.0703C65.0553 25.0052 65.0065 24.9401 64.9414 24.875C64.8763 24.8099 64.86 24.696 64.8926 24.5332C64.9251 24.403 64.974 24.3053 65.0391 24.2402C65.1367 24.1751 65.1693 24.0612 65.1367 23.8984C65.2995 23.6706 65.446 23.459 65.5762 23.2637C65.7389 23.0358 65.8691 22.7917 65.9668 22.5312C66.1296 22.2057 66.2598 21.9128 66.3574 21.6523C66.4551 21.3594 66.5527 21.0176 66.6504 20.627C66.7155 20.4316 66.7969 20.2526 66.8945 20.0898C66.9922 19.8945 67.0736 19.6992 67.1387 19.5039C67.1712 19.3737 67.1875 19.2598 67.1875 19.1621C67.1875 19.0319 67.2201 18.9342 67.2852 18.8691C67.6758 18.3809 67.9199 17.974 68.0176 17.6484C68.1152 17.2904 68.3268 17.0625 68.6523 16.9648C68.7174 16.6719 68.8151 16.4277 68.9453 16.2324C69.1081 16.0046 69.3685 15.8906 69.7266 15.8906C69.8568 16.0859 69.9707 16.3138 70.0684 16.5742C70.1986 16.8021 70.3939 16.9648 70.6543 17.0625C70.7845 17.388 70.8659 17.681 70.8984 17.9414C70.931 18.2018 71.0286 18.4948 71.1914 18.8203C71.3867 18.9831 71.5169 19.1784 71.582 19.4062C71.6471 19.6341 71.696 19.8783 71.7285 20.1387C71.7611 20.3665 71.7936 20.6107 71.8262 20.8711C71.8587 21.099 71.9401 21.3105 72.0703 21.5059C72.168 21.7988 72.2819 21.9453 72.4121 21.9453C72.64 22.2057 72.8027 22.2708 72.9004 22.1406C73.0306 21.9779 73.2259 21.8802 73.4863 21.8477C73.584 22.2383 73.5352 22.5638 73.3398 22.8242C73.1771 23.0521 73.0469 23.3125 72.9492 23.6055C72.9167 23.7357 72.8516 23.8333 72.7539 23.8984C72.6888 23.9635 72.6888 24.0612 72.7539 24.1914C72.819 24.2565 72.8841 24.2891 72.9492 24.2891C73.0469 24.2565 73.1608 24.2565 73.291 24.2891C73.4212 24.5169 73.5352 24.696 73.6328 24.8262C73.6003 24.9889 73.5352 25.1029 73.4375 25.168C73.3398 25.2005 73.2585 25.2819 73.1934 25.4121C73.2259 25.4772 73.291 25.5098 73.3887 25.5098C73.5189 25.4772 73.6328 25.4447 73.7305 25.4121C73.8281 25.3796 73.9258 25.3796 74.0234 25.4121C74.1211 25.4121 74.1862 25.4772 74.2188 25.6074C74.1536 25.7051 74.0723 25.7376 73.9746 25.7051C73.877 25.6725 73.7793 25.64 73.6816 25.6074C73.5189 25.7702 73.4049 25.9004 73.3398 25.998C73.2747 26.0957 73.2422 26.2096 73.2422 26.3398C73.2422 26.4701 73.2422 26.6003 73.2422 26.7305C73.2422 26.8607 73.2259 26.9746 73.1934 27.0723C73.584 27.1374 73.763 27.2188 73.7305 27.3164C73.6979 27.3815 73.6979 27.4466 73.7305 27.5117C73.6003 27.6745 73.5352 27.7721 73.5352 27.8047C73.5677 27.8047 73.5514 27.8698 73.4863 28C73.6165 28.0977 73.7305 28.1302 73.8281 28.0977C73.9258 28.0326 74.0397 27.9674 74.1699 27.9023C74.3001 27.9349 74.3815 28.0163 74.4141 28.1465C74.4466 28.2441 74.4954 28.3581 74.5605 28.4883C74.3978 28.5534 74.2676 28.6348 74.1699 28.7324C74.0723 28.7975 73.9421 28.8626 73.7793 28.9277C73.9746 29.5462 74.1699 29.9857 74.3652 30.2461C74.5605 30.5065 74.7233 30.8158 74.8535 31.1738C74.9512 31.1738 75.0488 31.1413 75.1465 31.0762C75.2441 31.0111 75.3255 31.0111 75.3906 31.0762C75.2604 31.1738 75.2116 31.304 75.2441 31.4668C75.2767 31.6296 75.2604 31.7598 75.1953 31.8574C75.3906 31.9225 75.4883 31.89 75.4883 31.7598C75.4883 31.6296 75.5534 31.5482 75.6836 31.5156C75.6836 31.6784 75.6348 31.776 75.5371 31.8086C75.472 31.8411 75.4232 31.9225 75.3906 32.0527C75.4557 32.1829 75.5208 32.3132 75.5859 32.4434C75.6836 32.541 75.7487 32.6712 75.7812 32.834C75.9115 32.8991 76.0254 32.9154 76.123 32.8828C76.2533 32.8503 76.3672 32.8014 76.4648 32.7363C76.5625 32.6712 76.6602 32.6061 76.7578 32.541C76.888 32.4434 77.0345 32.3945 77.1973 32.3945C77.5553 32.7201 77.6693 32.8991 77.5391 32.9316C77.4414 32.9642 77.4251 33.1107 77.4902 33.3711C77.1647 33.5013 76.9531 33.6966 76.8555 33.957C76.7578 34.1849 76.6113 34.3802 76.416 34.543C76.4811 34.7057 76.6113 34.8034 76.8066 34.8359C77.002 34.8685 77.1647 34.9336 77.2949 35.0312C77.1322 35.4219 77.0833 35.6172 77.1484 35.6172C77.2135 35.5846 77.2624 35.6009 77.2949 35.666C77.1973 36.0241 77.1973 36.2194 77.2949 36.252C77.4251 36.2845 77.5553 36.3008 77.6855 36.3008C77.8158 36.3008 77.9297 36.2845 78.0273 36.252C78.125 36.2194 78.1576 36.1543 78.125 36.0566C78.3854 36.0892 78.5482 36.1055 78.6133 36.1055C78.6784 36.1055 78.7435 36.0729 78.8086 36.0078C79.0365 36.0729 79.1341 36.2194 79.1016 36.4473C79.069 36.6426 78.9551 36.7728 78.7598 36.8379C78.5645 36.8053 78.4342 36.6426 78.3691 36.3496C78.2715 36.4473 78.0924 36.5449 77.832 36.6426C77.6042 36.7402 77.4902 36.8867 77.4902 37.082C77.4902 37.1471 77.5228 37.2448 77.5879 37.375C77.653 37.5052 77.7669 37.5378 77.9297 37.4727C78.0924 37.3424 78.1901 37.2611 78.2227 37.2285C78.2878 37.196 78.3529 37.1797 78.418 37.1797C78.3529 37.3424 78.3203 37.5052 78.3203 37.668C78.3203 37.8307 78.2227 37.9284 78.0273 37.9609C78.1576 38.026 78.1901 38.1237 78.125 38.2539C78.0599 38.3841 78.0924 38.4818 78.2227 38.5469C78.2878 38.4492 78.4017 38.4004 78.5645 38.4004C78.7272 38.3678 78.8574 38.3027 78.9551 38.2051C79.1829 38.5306 79.3132 38.6934 79.3457 38.6934C79.4108 38.6934 79.4759 38.7096 79.541 38.7422C79.2806 39.1328 79.069 39.4746 78.9062 39.7676C78.9388 39.9954 78.9714 40.1257 79.0039 40.1582C79.069 40.1908 79.1829 40.1908 79.3457 40.1582C79.3457 40.321 79.3783 40.4186 79.4434 40.4512C79.541 40.4837 79.6224 40.5488 79.6875 40.6465C79.5247 40.9069 79.4271 41.0697 79.3945 41.1348C79.3945 41.1673 79.3457 41.151 79.248 41.0859C79.248 41.2487 79.248 41.3789 79.248 41.4766C79.248 41.5417 79.2643 41.6556 79.2969 41.8184C79.5573 41.7533 79.8014 41.6556 80.0293 41.5254C80.2572 41.3952 80.4199 41.4928 80.5176 41.8184C80.3223 41.8509 80.1758 41.9323 80.0781 42.0625C80.013 42.1927 79.8991 42.2741 79.7363 42.3066C79.4759 42.6647 79.2969 42.9414 79.1992 43.1367C79.1341 43.2995 79.1829 43.4948 79.3457 43.7227C79.5085 43.6576 79.6387 43.6413 79.7363 43.6738C79.834 43.7064 79.9316 43.7064 80.0293 43.6738C79.9642 43.8691 79.8991 43.9831 79.834 44.0156C79.7689 44.0482 79.7363 44.1947 79.7363 44.4551C79.834 44.6178 79.9154 44.6178 79.9805 44.4551C80.0781 44.2598 80.1758 44.2435 80.2734 44.4062C80.1432 44.569 80.0293 44.6992 79.9316 44.7969C79.8665 44.8945 79.8014 45.0085 79.7363 45.1387C79.9316 45.3014 80.0456 45.4967 80.0781 45.7246C80.1107 45.9199 80.0944 46.1478 80.0293 46.4082C80.1595 46.6361 80.3874 46.7988 80.7129 46.8965C80.6803 47.0592 80.6152 47.2057 80.5176 47.3359C80.4525 47.4336 80.3874 47.5312 80.3223 47.6289C80.3874 47.7917 80.4525 47.9219 80.5176 48.0195C80.5827 48.1172 80.6315 48.2474 80.6641 48.4102C80.9245 48.5729 81.1686 48.5892 81.3965 48.459C81.6243 48.3288 81.8685 48.3288 82.1289 48.459C82.1615 48.5892 82.1452 48.6868 82.0801 48.752C82.0475 48.8171 82.015 48.8984 81.9824 48.9961C82.1452 49.1589 82.3079 49.2077 82.4707 49.1426C82.6335 49.0449 82.7962 49.0449 82.959 49.1426C83.0566 49.3053 83.0566 49.4355 82.959 49.5332C82.8939 49.6309 82.8939 49.7611 82.959 49.9238C82.8939 49.9889 82.8288 50.054 82.7637 50.1191C82.6986 50.1842 82.6009 50.2331 82.4707 50.2656C82.5684 50.4284 82.6497 50.5911 82.7148 50.7539C82.8125 50.8841 82.959 50.998 83.1543 51.0957C83.4473 51.1283 83.724 51.1771 83.9844 51.2422C84.2773 51.2747 84.4401 51.4212 84.4727 51.6816C84.7005 51.9095 85.0423 52.0397 85.498 52.0723C85.9538 52.1048 86.3444 52.0885 86.6699 52.0234ZM69.3848 16.6719C69.3197 16.737 69.2546 16.8509 69.1895 17.0137C69.1243 17.1439 69.1569 17.2415 69.2871 17.3066C69.3197 17.2415 69.3685 17.1439 69.4336 17.0137C69.4987 16.8835 69.4824 16.7695 69.3848 16.6719ZM69.1406 17.3555C68.6849 17.7135 68.3594 18.1693 68.1641 18.7227C68.457 18.625 68.6686 18.4297 68.7988 18.1367C68.9616 17.8438 69.0755 17.5833 69.1406 17.3555ZM71.2402 20.3828C71.2728 20.1224 71.224 19.9759 71.0938 19.9434C70.9635 19.8783 70.8496 19.9271 70.752 20.0898C70.6868 20.0573 70.5566 20.0573 70.3613 20.0898C70.166 20.1224 70.1172 20.2201 70.2148 20.3828C69.8242 20.5456 69.5964 20.6921 69.5312 20.8223C69.4987 20.9199 69.4499 21.0013 69.3848 21.0664C69.4499 21.1641 69.4499 21.278 69.3848 21.4082C69.3197 21.5384 69.2708 21.6361 69.2383 21.7012C69.4987 21.6361 69.6615 21.6035 69.7266 21.6035C69.8242 21.6035 69.8893 21.571 69.9219 21.5059C69.9544 21.1152 69.987 20.9362 70.0195 20.9688C70.0521 20.9688 70.1172 20.985 70.2148 21.0176C70.2799 20.9199 70.3613 20.8223 70.459 20.7246C70.5566 20.627 70.638 20.5456 70.7031 20.4805C70.8008 20.3177 70.8659 20.2689 70.8984 20.334C70.9635 20.3991 71.0775 20.4154 71.2402 20.3828ZM70.6543 19.0156C70.5566 18.8529 70.5241 18.6738 70.5566 18.4785C70.5892 18.2507 70.4753 18.1204 70.2148 18.0879C70.1497 18.153 70.1009 18.2344 70.0684 18.332C70.0358 18.4297 69.9382 18.4622 69.7754 18.4297C69.7754 18.8529 69.5638 19.097 69.1406 19.1621C68.9779 19.3249 68.8965 19.4551 68.8965 19.5527C68.929 19.6504 68.9128 19.6992 68.8477 19.6992C68.75 19.7969 68.6849 19.8945 68.6523 19.9922C68.6198 20.0573 68.5221 20.0898 68.3594 20.0898C68.457 20.3503 68.4245 20.4805 68.2617 20.4805C68.099 20.4805 67.985 20.5456 67.9199 20.6758C67.7246 21.0013 67.5456 21.4733 67.3828 22.0918C67.7734 22.222 68.0339 22.3034 68.1641 22.3359C68.2943 22.3685 68.3594 22.3034 68.3594 22.1406C68.2943 22.0755 68.2129 22.0267 68.1152 21.9941C68.0176 21.9616 67.9036 21.9128 67.7734 21.8477C68.0664 21.6523 68.2292 21.5384 68.2617 21.5059C68.2943 21.4408 68.3105 21.3919 68.3105 21.3594C68.3431 21.2943 68.3919 21.2454 68.457 21.2129C68.5221 21.1803 68.6361 21.1641 68.7988 21.1641C68.8314 21.0013 68.9128 20.8874 69.043 20.8223C69.1732 20.7572 69.2871 20.6432 69.3848 20.4805C69.2546 20.3503 69.1406 20.3991 69.043 20.627C68.9453 20.8548 68.8314 20.9362 68.7012 20.8711C68.7337 20.5456 68.8802 20.3014 69.1406 20.1387C69.3034 19.9434 69.4987 19.862 69.7266 19.8945C70.0521 19.7969 70.2311 19.7643 70.2637 19.7969C70.3288 19.7969 70.3776 19.8294 70.4102 19.8945C70.2474 19.6667 70.1172 19.5527 70.0195 19.5527C69.9544 19.5202 69.9219 19.4551 69.9219 19.3574C70.1823 19.3574 70.4264 19.2435 70.6543 19.0156ZM71.875 23.8008C71.7122 23.931 71.5332 24.0286 71.3379 24.0938C71.1426 24.1589 71.0124 24.3053 70.9473 24.5332C71.0449 24.3053 71.0775 24.1589 71.0449 24.0938C71.0124 23.9961 70.9798 23.9147 70.9473 23.8496C70.9798 23.5566 70.9147 23.4264 70.752 23.459C70.6217 23.4915 70.5241 23.5078 70.459 23.5078C70.5566 23.4102 70.6706 23.3451 70.8008 23.3125C70.9635 23.2474 71.11 23.1823 71.2402 23.1172C71.3379 22.6615 71.4355 22.3522 71.5332 22.1895C71.6634 22.0267 71.6146 21.8639 71.3867 21.7012C71.4518 21.4733 71.4355 21.3268 71.3379 21.2617C71.2402 21.1641 71.2402 21.0339 71.3379 20.8711C71.0449 21.0013 70.8659 21.0339 70.8008 20.9688C70.7682 20.9036 70.6543 20.8874 70.459 20.9199C70.2637 21.2454 70.1172 21.4896 70.0195 21.6523C69.9544 21.7826 69.8079 21.8639 69.5801 21.8965C69.4499 22.222 69.2871 22.4173 69.0918 22.4824C68.8314 22.3197 68.6035 22.3034 68.4082 22.4336C68.2454 22.5312 68.0827 22.6615 67.9199 22.8242C68.0827 22.8242 68.1966 22.8405 68.2617 22.873C68.3594 22.873 68.4896 22.8568 68.6523 22.8242C68.457 22.987 68.3431 23.1009 68.3105 23.166C68.278 23.2311 68.2129 23.2799 68.1152 23.3125C67.8874 23.4427 67.7572 23.4753 67.7246 23.4102C67.6921 23.3451 67.6107 23.3613 67.4805 23.459C67.3177 23.752 67.2201 23.9147 67.1875 23.9473C67.1549 23.9473 67.1549 23.9798 67.1875 24.0449C66.9271 24.2728 66.7806 24.403 66.748 24.4355C66.7155 24.4681 66.7155 24.5332 66.748 24.6309C66.8457 24.7936 66.8457 24.9889 66.748 25.2168C66.6504 25.4447 66.6992 25.64 66.8945 25.8027C67.1549 25.8678 67.2852 25.819 67.2852 25.6562C67.3177 25.4935 67.4154 25.3796 67.5781 25.3145C67.6758 25.3796 67.7734 25.4447 67.8711 25.5098C68.0013 25.5423 68.1478 25.526 68.3105 25.4609C68.571 25.1354 68.8151 24.8424 69.043 24.582C69.3034 24.3216 69.5801 24.0938 69.873 23.8984C70.1335 24.0612 70.1497 24.2402 69.9219 24.4355C69.694 24.5983 69.5312 24.7936 69.4336 25.0215C69.401 25.0215 69.3197 25.1029 69.1895 25.2656C69.0592 25.4284 68.9779 25.5749 68.9453 25.7051C68.7826 25.4121 68.6361 25.2982 68.5059 25.3633C68.571 25.6562 68.5872 25.8353 68.5547 25.9004C68.5221 25.9329 68.4408 25.9492 68.3105 25.9492C67.9199 25.7539 67.6921 25.7539 67.627 25.9492C67.9199 25.7865 68.1315 25.8353 68.2617 26.0957C67.9688 26.3887 67.806 26.7467 67.7734 27.1699C67.8711 27.2025 67.985 27.2188 68.1152 27.2188C68.2454 27.1862 68.3105 27.2025 68.3105 27.2676C68.1478 27.3327 68.0501 27.4629 68.0176 27.6582C68.0176 27.821 67.9525 27.9512 67.8223 28.0488C68.278 28.3092 68.5384 28.293 68.6035 28C68.6686 27.707 68.7988 27.5605 68.9941 27.5605C69.1569 27.2025 69.2871 26.9583 69.3848 26.8281C69.515 26.6979 69.6289 26.5677 69.7266 26.4375C69.8242 26.3073 69.9056 26.1771 69.9707 26.0469C70.0358 25.9167 70.0195 25.7865 69.9219 25.6562C70.0521 25.7214 70.1497 25.7376 70.2148 25.7051C70.3125 25.64 70.3939 25.5749 70.459 25.5098C70.6543 25.3145 70.8333 25.0866 70.9961 24.8262C71.1589 24.5658 71.3867 24.3542 71.6797 24.1914L71.875 23.8008ZM72.4121 25.4121C72.1517 25.4772 71.9564 25.5911 71.8262 25.7539C71.7285 25.9167 71.5658 26.0306 71.3379 26.0957C71.1751 26.584 70.931 26.9258 70.6055 27.1211C70.3125 27.3164 70.0521 27.5931 69.8242 27.9512C69.7266 28.2116 69.5964 28.3418 69.4336 28.3418C69.401 28.6348 69.2708 28.8464 69.043 28.9766C68.8477 29.1068 68.7012 29.3021 68.6035 29.5625C68.7337 29.6276 68.8477 29.6602 68.9453 29.6602C69.0755 29.6276 69.1732 29.5788 69.2383 29.5137C69.3685 29.2533 69.4661 29.0579 69.5312 28.9277C69.6289 28.765 69.7591 28.6673 69.9219 28.6348C70.0521 28.2116 70.2148 27.9837 70.4102 27.9512C70.638 27.8861 70.7357 27.7721 70.7031 27.6094C70.931 27.349 71.1426 27.1211 71.3379 26.9258C71.5658 26.7305 71.7611 26.5352 71.9238 26.3398C72.0215 26.0469 72.1354 25.8678 72.2656 25.8027C72.3958 25.7051 72.4447 25.5749 72.4121 25.4121ZM76.6602 33.6641L76.2207 33.2734C76.2533 33.4362 76.2044 33.5827 76.0742 33.7129C75.9766 33.8431 76.0254 33.9408 76.2207 34.0059C76.1882 33.8105 76.2207 33.7292 76.3184 33.7617C76.4486 33.7617 76.5625 33.7292 76.6602 33.6641ZM69.873 27.707C69.7754 27.8372 69.6777 27.9186 69.5801 27.9512C69.515 27.9512 69.4824 28 69.4824 28.0977C69.6126 28.0977 69.694 28.0651 69.7266 28C69.7591 27.9023 69.8079 27.8047 69.873 27.707ZM72.9492 28.3418C72.8841 27.9837 72.8678 27.6908 72.9004 27.4629C72.9329 27.235 72.8841 27.0397 72.7539 26.877C72.4284 26.9095 72.2005 27.056 72.0703 27.3164C71.9401 27.5443 71.7773 27.6745 71.582 27.707C71.582 27.8698 71.5332 27.9837 71.4355 28.0488C71.3704 28.1139 71.3053 28.2116 71.2402 28.3418C70.9798 28.6022 70.8008 28.8138 70.7031 28.9766C70.638 29.1068 70.5078 29.1719 70.3125 29.1719C70.2474 29.3997 70.1335 29.6113 69.9707 29.8066C69.8405 30.002 69.6289 30.1484 69.3359 30.2461C69.401 30.4089 69.3848 30.5391 69.2871 30.6367C69.1895 30.7344 69.0592 30.8158 68.8965 30.8809C68.8314 31.2389 68.8965 31.4668 69.0918 31.5645C69.3197 31.6621 69.4987 31.6947 69.6289 31.6621C69.7917 31.4342 69.8405 31.2064 69.7754 30.9785C70.0033 30.9134 70.166 30.7832 70.2637 30.5879C70.3613 30.3926 70.5241 30.2461 70.752 30.1484C70.7845 30.0508 70.8333 29.9694 70.8984 29.9043C70.9961 29.8392 71.11 29.7578 71.2402 29.6602C71.2077 29.4323 71.3542 29.2207 71.6797 29.0254C72.0378 28.8301 72.2656 28.6836 72.3633 28.5859C72.6562 28.4883 72.819 28.4395 72.8516 28.4395C72.9167 28.4395 72.9492 28.4069 72.9492 28.3418ZM74.4141 32.5898C74.5768 32.362 74.6419 32.1341 74.6094 31.9062C74.5768 31.6784 74.4954 31.4668 74.3652 31.2715C74.2676 31.0436 74.1374 30.832 73.9746 30.6367C73.8444 30.4089 73.7467 30.1973 73.6816 30.002C73.4212 30.002 73.2422 30.0833 73.1445 30.2461C73.0794 30.4089 72.998 30.5228 72.9004 30.5879C72.8353 30.2949 72.8353 30.0996 72.9004 30.002C72.9655 29.8717 73.0306 29.7578 73.0957 29.6602C73.1934 29.5625 73.2747 29.4648 73.3398 29.3672C73.4049 29.237 73.4049 29.0905 73.3398 28.9277C73.0794 28.8952 72.9167 28.9928 72.8516 29.2207C72.7865 29.416 72.64 29.4811 72.4121 29.416C72.0215 29.8392 71.7611 30.181 71.6309 30.4414C71.5007 30.7018 71.3216 30.7669 71.0938 30.6367C71.0286 30.7344 70.9961 30.8483 70.9961 30.9785C70.9961 31.0762 70.9473 31.1576 70.8496 31.2227C70.6868 31.2878 70.5729 31.3366 70.5078 31.3691C70.4427 31.3691 70.3776 31.4017 70.3125 31.4668C70.2799 31.6621 70.166 31.9062 69.9707 32.1992C69.8079 32.4596 69.6452 32.7201 69.4824 32.9805C69.6777 33.2734 69.7754 33.4036 69.7754 33.3711C69.7754 33.3385 69.8079 33.3385 69.873 33.3711C69.9382 33.1432 70.0521 32.9642 70.2148 32.834C70.3776 32.6712 70.5404 32.5247 70.7031 32.3945C70.8984 32.2643 71.0612 32.1504 71.1914 32.0527C71.3542 31.9225 71.4518 31.7598 71.4844 31.5645C71.7122 31.2715 71.8587 31.1087 71.9238 31.0762C72.0215 31.0111 72.1029 30.9297 72.168 30.832C72.2331 30.832 72.3145 30.8646 72.4121 30.9297C72.5423 30.9622 72.6562 30.946 72.7539 30.8809C72.9492 31.1738 73.0469 31.3854 73.0469 31.5156C73.0469 31.6458 72.998 31.7923 72.9004 31.9551C72.8027 32.0853 72.6888 32.2155 72.5586 32.3457C72.4284 32.4759 72.3307 32.6061 72.2656 32.7363C72.0052 33.485 71.5658 34.0221 70.9473 34.3477C70.6868 34.6732 70.5892 34.8359 70.6543 34.8359C70.7194 34.8359 70.7357 34.8848 70.7031 34.9824C70.5729 35.3079 70.4915 35.6172 70.459 35.9102C70.4264 36.2031 70.638 36.3659 71.0938 36.3984C71.3216 36.138 71.4518 35.9427 71.4844 35.8125C71.5169 35.6497 71.5658 35.6335 71.6309 35.7637C71.8587 35.4707 71.9889 35.3405 72.0215 35.373C72.054 35.4056 72.1029 35.4219 72.168 35.4219C72.2982 35.194 72.3633 35.0312 72.3633 34.9336C72.3958 34.8034 72.5098 34.7708 72.7051 34.8359C72.6725 34.5755 72.7214 34.4128 72.8516 34.3477C73.0143 34.25 73.1771 34.1686 73.3398 34.1035C73.3398 33.8431 73.3724 33.6966 73.4375 33.6641C73.5352 33.599 73.6165 33.5339 73.6816 33.4688C73.8118 33.2083 73.9095 33.013 73.9746 32.8828C74.0723 32.7526 74.2188 32.6549 74.4141 32.5898ZM72.0703 32.0527C71.9076 32.1178 71.7936 32.2318 71.7285 32.3945C71.696 32.5247 71.5658 32.5736 71.3379 32.541C71.3704 32.6712 71.4193 32.7363 71.4844 32.7363C71.582 32.7038 71.6797 32.6387 71.7773 32.541C71.875 32.4434 71.9564 32.3457 72.0215 32.248C72.0866 32.1504 72.1029 32.0853 72.0703 32.0527ZM75 32.9805C74.7396 33.013 74.5605 33.1107 74.4629 33.2734C74.3652 33.4362 74.2025 33.5339 73.9746 33.5664C73.877 33.8594 73.7305 34.1361 73.5352 34.3965C73.3398 34.6243 73.112 34.8522 72.8516 35.0801C72.8516 35.3405 72.7702 35.5195 72.6074 35.6172C72.4447 35.6823 72.2819 35.7311 72.1191 35.7637C72.1191 35.9264 72.0703 36.0566 71.9727 36.1543C71.875 36.252 71.7611 36.3496 71.6309 36.4473C71.5332 36.5449 71.4355 36.6589 71.3379 36.7891C71.2728 36.8867 71.2728 37.0332 71.3379 37.2285C71.8587 36.8053 72.2331 36.4798 72.4609 36.252C72.6888 35.9915 72.9004 35.7474 73.0957 35.5195C73.3236 35.2591 73.5352 35.015 73.7305 34.7871C73.9583 34.5267 74.2025 34.2988 74.4629 34.1035C74.4954 33.8431 74.5931 33.6641 74.7559 33.5664C74.9512 33.4688 75.0326 33.2734 75 32.9805ZM71.3867 32.9316C71.224 32.9967 71.0612 33.1432 70.8984 33.3711C70.7682 33.599 70.7031 33.7943 70.7031 33.957C70.8659 33.957 70.931 33.9082 70.8984 33.8105C70.8984 33.6803 70.9147 33.5664 70.9473 33.4688C71.2077 33.2734 71.3542 33.0944 71.3867 32.9316ZM77.0996 39.6211C76.9694 39.6211 76.8392 39.6699 76.709 39.7676C76.6113 39.8327 76.5951 39.8978 76.6602 39.9629C76.7578 39.8978 76.8392 39.849 76.9043 39.8164C77.002 39.7839 77.0671 39.7188 77.0996 39.6211ZM75.5859 34.25C75.0977 34.6081 74.6582 34.9499 74.2676 35.2754C73.9095 35.5684 73.5514 35.8451 73.1934 36.1055C73.1608 36.3659 73.0469 36.61 72.8516 36.8379C72.6562 37.0658 72.4121 37.2611 72.1191 37.4238C72.054 37.6842 71.9564 37.8958 71.8262 38.0586C71.7285 38.1888 71.6146 38.3353 71.4844 38.498C71.7773 38.6283 71.9076 38.6608 71.875 38.5957C71.875 38.5306 71.9564 38.5306 72.1191 38.5957C72.2168 38.3027 72.2493 38.14 72.2168 38.1074C72.1842 38.0423 72.168 37.9772 72.168 37.9121C72.3307 37.9447 72.4447 37.9284 72.5098 37.8633C72.6074 37.7982 72.6888 37.7168 72.7539 37.6191C72.8516 37.5215 72.9329 37.4238 72.998 37.3262C73.0632 37.2285 73.1771 37.1797 73.3398 37.1797C73.5352 36.9193 73.6165 36.7728 73.584 36.7402C73.5514 36.7077 73.5189 36.6589 73.4863 36.5938C73.7793 36.3659 74.0397 36.1055 74.2676 35.8125C74.4954 35.5195 74.7884 35.3079 75.1465 35.1777C75.3743 34.8197 75.5208 34.5104 75.5859 34.25ZM76.4648 36.4961C76.3021 36.4635 76.2533 36.3659 76.3184 36.2031C76.416 36.0404 76.4486 35.9264 76.416 35.8613C76.3184 35.7637 76.2207 35.7311 76.123 35.7637C76.0254 35.7962 75.9277 35.8451 75.8301 35.9102C75.7324 35.9753 75.6348 36.0566 75.5371 36.1543C75.4395 36.2194 75.3255 36.2194 75.1953 36.1543C75.1628 36.3822 75.1139 36.5449 75.0488 36.6426C75.0163 36.7402 74.9186 36.7728 74.7559 36.7402C74.7884 36.9681 74.7233 37.1146 74.5605 37.1797C74.4303 37.2122 74.3164 37.2936 74.2188 37.4238C74.2839 37.6842 74.1862 37.8307 73.9258 37.8633C73.6654 37.8958 73.4863 37.9935 73.3887 38.1562C73.2585 38.5469 73.0632 38.8724 72.8027 39.1328C72.5423 39.3932 72.3307 39.7025 72.168 40.0605C72.2331 40.1582 72.2819 40.2559 72.3145 40.3535C72.347 40.4186 72.3633 40.5163 72.3633 40.6465C72.526 40.6465 72.64 40.6139 72.7051 40.5488C72.8027 40.4512 72.8841 40.3535 72.9492 40.2559C73.0143 40.1582 73.0794 40.0768 73.1445 40.0117C73.2096 39.9466 73.3073 39.9303 73.4375 39.9629C73.6003 39.7025 73.6979 39.5072 73.7305 39.377C73.763 39.2467 73.8444 39.2305 73.9746 39.3281C74.1374 38.7096 74.4466 38.2539 74.9023 37.9609C75.3906 37.6354 75.7812 37.2285 76.0742 36.7402L76.4648 36.4961ZM70.4102 33.9082C70.3451 33.9733 70.2799 34.071 70.2148 34.2012C70.1823 34.2988 70.1335 34.3965 70.0684 34.4941C70.2637 34.5592 70.4102 34.5104 70.5078 34.3477C70.638 34.1523 70.6055 34.0059 70.4102 33.9082ZM77.2949 38.0586C77.2624 37.7982 77.1484 37.668 76.9531 37.668C76.7904 37.6354 76.6113 37.6191 76.416 37.6191C76.4811 37.8145 76.4323 37.9121 76.2695 37.9121C76.1393 37.8796 76.0254 37.8958 75.9277 37.9609C75.765 38.319 75.6673 38.5469 75.6348 38.6445C75.5697 38.8398 75.4883 38.9701 75.3906 39.0352C75.293 39.1003 75.2116 39.1003 75.1465 39.0352C75.0488 39.2305 74.9349 39.377 74.8047 39.4746C74.707 39.5723 74.6094 39.6862 74.5117 39.8164C74.4466 39.9466 74.3652 40.0768 74.2676 40.207C74.1699 40.3047 74.0397 40.3698 73.877 40.4023C73.6491 40.8906 73.4212 41.1836 73.1934 41.2812C72.998 41.3464 72.7865 41.444 72.5586 41.5742C72.5586 41.8021 72.6074 41.9811 72.7051 42.1113C72.8353 42.2415 72.8353 42.4043 72.7051 42.5996C72.9329 42.6973 73.112 42.7461 73.2422 42.7461C73.4049 42.7135 73.5189 42.6647 73.584 42.5996C73.6165 42.4694 73.6654 42.3555 73.7305 42.2578C73.7956 42.1602 73.877 42.0788 73.9746 42.0137L74.4141 41.6719C74.3164 41.4115 74.3652 41.2487 74.5605 41.1836C74.7559 41.0859 74.8372 40.972 74.8047 40.8418C75.0326 40.7116 75.1953 40.6302 75.293 40.5977C75.4232 40.5651 75.5208 40.5163 75.5859 40.4512C75.8138 39.8001 76.0417 39.4421 76.2695 39.377C76.4974 39.2793 76.709 39.1165 76.9043 38.8887C76.9694 38.791 77.0508 38.6771 77.1484 38.5469C77.2786 38.3841 77.3275 38.2214 77.2949 38.0586ZM77.6367 39.8652C77.474 39.8978 77.36 39.9629 77.2949 40.0605C77.2298 40.1257 77.0996 40.1257 76.9043 40.0605C76.8066 40.2233 76.7415 40.3698 76.709 40.5C76.6764 40.5977 76.5788 40.6139 76.416 40.5488C76.2533 40.8418 76.0742 41.1022 75.8789 41.3301C75.6836 41.5579 75.4883 41.8021 75.293 42.0625C75.0651 42.2904 74.8698 42.502 74.707 42.6973C74.5443 42.86 74.3652 42.9902 74.1699 43.0879C74.1374 43.1855 74.1048 43.2669 74.0723 43.332C74.0397 43.3646 74.0072 43.4134 73.9746 43.4785C73.9421 43.5111 73.9095 43.5436 73.877 43.5762C73.877 43.5762 73.8444 43.5436 73.7793 43.4785C73.7793 43.7715 73.7305 43.9505 73.6328 44.0156C73.5677 44.0482 73.5026 44.1296 73.4375 44.2598C73.763 44.3249 73.9746 44.3249 74.0723 44.2598C74.2025 44.1947 74.3327 44.1296 74.4629 44.0645C74.7233 43.7064 74.8861 43.4134 74.9512 43.1855C75.0163 42.9251 75.1953 42.7786 75.4883 42.7461C75.8789 42.1276 76.3021 41.6556 76.7578 41.3301C77.2135 41.0046 77.5065 40.5163 77.6367 39.8652ZM71.0938 39.7676C71.1589 39.377 71.1589 38.9863 71.0938 38.5957C71.0286 38.2051 70.8171 37.9121 70.459 37.7168C70.5892 37.847 70.5729 37.9447 70.4102 38.0098C70.2474 38.0423 70.1335 38.1237 70.0684 38.2539C69.9056 37.9609 69.8568 37.7168 69.9219 37.5215C70.0195 37.3262 70.1172 37.1146 70.2148 36.8867C70.0846 36.6589 69.987 36.431 69.9219 36.2031C69.8893 35.9427 69.8405 35.6986 69.7754 35.4707C69.7428 35.2103 69.6777 34.9824 69.5801 34.7871C69.4824 34.5918 69.3197 34.4453 69.0918 34.3477C69.1895 34.2174 69.222 34.0384 69.1895 33.8105C69.1895 33.5501 69.0918 33.4199 68.8965 33.4199C68.8314 33.5501 68.6686 33.6966 68.4082 33.8594C68.1803 33.9896 67.9688 33.9408 67.7734 33.7129C67.9688 33.3548 68.0501 33.1595 68.0176 33.127C67.985 33.0618 67.9688 32.9967 67.9688 32.9316C68.2943 32.7689 68.4896 32.6712 68.5547 32.6387C68.6198 32.6061 68.6849 32.5573 68.75 32.4922C68.5221 32.1667 68.3757 31.7435 68.3105 31.2227C68.2454 31.1576 68.1641 31.1087 68.0664 31.0762C67.9688 31.0111 67.9199 30.8971 67.9199 30.7344C68.1803 30.4089 68.2129 30.1647 68.0176 30.002C67.8223 29.8392 67.6758 29.6927 67.5781 29.5625C67.7409 29.3672 67.7409 29.1393 67.5781 28.8789C67.4479 28.5859 67.3503 28.3255 67.2852 28.0977C67.1224 28.0651 66.9759 28.0326 66.8457 28C66.748 27.9349 66.6829 27.821 66.6504 27.6582C66.7155 27.5605 66.748 27.3164 66.748 26.9258C66.5853 26.7956 66.4551 26.763 66.3574 26.8281C66.2598 26.8607 66.1621 26.8118 66.0645 26.6816C65.9017 26.9095 65.7715 27.1699 65.6738 27.4629C65.6087 27.7559 65.5273 28.0488 65.4297 28.3418C65.332 28.6348 65.2181 28.9115 65.0879 29.1719C64.9902 29.4323 64.8438 29.6602 64.6484 29.8555C64.7461 30.1484 64.6647 30.4577 64.4043 30.7832C64.1764 31.0762 64.0788 31.3854 64.1113 31.7109C64.0462 31.9388 63.9486 32.0853 63.8184 32.1504C63.7207 32.2155 63.737 32.3294 63.8672 32.4922C63.5417 32.9479 63.3301 33.4688 63.2324 34.0547C63.1348 34.6081 62.9557 35.0964 62.6953 35.5195C62.5326 35.9753 62.3861 36.3659 62.2559 36.6914C62.1582 36.9844 62.0605 37.3099 61.9629 37.668C61.8978 38.026 61.8327 38.4004 61.7676 38.791C61.7025 39.1491 61.6211 39.5072 61.5234 39.8652C61.6211 39.8978 61.735 39.9303 61.8652 39.9629C61.9954 39.9629 62.1257 39.9954 62.2559 40.0605C62.8092 39.8978 63.4603 39.8652 64.209 39.9629C65.0879 40.0931 65.9831 40.1094 66.8945 40.0117C67.806 39.8815 68.7174 39.8815 69.6289 40.0117C69.8242 39.9466 70.0521 39.9141 70.3125 39.9141C70.5729 39.8815 70.8333 39.8327 71.0938 39.7676ZM82.7148 49.3867C82.5521 49.4518 82.4219 49.5007 82.3242 49.5332C82.2266 49.5332 82.0801 49.5658 81.8848 49.6309C81.8522 49.7936 81.8685 49.8913 81.9336 49.9238C82.0312 49.9564 82.0638 50.0378 82.0312 50.168C82.2917 49.9401 82.4544 49.7936 82.5195 49.7285C82.6172 49.6634 82.6823 49.5495 82.7148 49.3867ZM77.9297 41.4766C77.7344 41.5091 77.5879 41.5742 77.4902 41.6719C77.3926 41.7695 77.3112 41.8835 77.2461 42.0137C77.181 42.1113 77.0996 42.2253 77.002 42.3555C76.9043 42.4531 76.7741 42.5182 76.6113 42.5508C76.2533 43.2018 75.8138 43.7552 75.293 44.2109C74.8047 44.6667 74.349 45.1875 73.9258 45.7734C74.0234 46.1315 74.0885 46.3757 74.1211 46.5059C74.1862 46.6361 74.3001 46.7337 74.4629 46.7988C74.5605 46.5059 74.6745 46.2943 74.8047 46.1641C74.9674 46.0339 75.0651 45.8711 75.0977 45.6758C75.3255 45.513 75.472 45.2852 75.5371 44.9922C75.6348 44.6667 75.8626 44.4388 76.2207 44.3086C76.416 44.0807 76.5462 43.9505 76.6113 43.918C76.6764 43.8529 76.7253 43.7878 76.7578 43.7227C76.7904 43.6576 76.8229 43.5924 76.8555 43.5273C76.888 43.4622 76.9694 43.4297 77.0996 43.4297C77.0671 43.2344 77.0996 43.0716 77.1973 42.9414C77.3275 42.8112 77.4414 42.681 77.5391 42.5508C77.6693 42.4206 77.7832 42.2741 77.8809 42.1113C77.9785 41.9486 77.9948 41.737 77.9297 41.4766ZM83.8867 52.2188C83.9193 52.0234 83.8704 51.9258 83.7402 51.9258C83.61 51.8932 83.4798 51.877 83.3496 51.877C83.3822 52.2025 83.431 52.3327 83.4961 52.2676C83.5938 52.2025 83.724 52.1862 83.8867 52.2188ZM82.7637 51.584C82.7311 51.2585 82.5684 51.0957 82.2754 51.0957C81.9824 51.0632 81.7871 51.1771 81.6895 51.4375C81.7871 51.4049 81.8685 51.3724 81.9336 51.3398C81.9987 51.3073 82.0964 51.291 82.2266 51.291C82.2591 51.3887 82.3405 51.4863 82.4707 51.584C82.6009 51.6491 82.6986 51.6491 82.7637 51.584ZM78.5156 43.8203C78.418 43.4948 78.3366 43.332 78.2715 43.332C78.2064 43.332 78.125 43.3646 78.0273 43.4297C77.8646 43.5924 77.7344 43.7878 77.6367 44.0156C77.5716 44.2435 77.4902 44.4388 77.3926 44.6016C77.2949 44.7318 77.1159 44.7806 76.8555 44.748C76.5951 44.6829 76.4323 44.6829 76.3672 44.748C76.4648 44.8783 76.5788 44.9434 76.709 44.9434C76.8392 44.9434 76.9694 44.9922 77.0996 45.0898C76.709 45.3177 76.4323 45.5618 76.2695 45.8223C76.1068 46.0501 75.8952 46.1966 75.6348 46.2617C75.5697 46.4896 75.5534 46.7174 75.5859 46.9453C75.3581 46.9779 75.179 47.0592 75.0488 47.1895C74.9186 47.2871 74.7233 47.3034 74.4629 47.2383C74.6257 47.4336 74.7396 47.6452 74.8047 47.873C74.9023 48.1009 75.0814 48.2311 75.3418 48.2637C75.5371 48.2311 75.6673 48.2311 75.7324 48.2637C75.8301 48.2637 75.8952 48.2311 75.9277 48.166C75.8626 48.1009 75.8138 48.0358 75.7812 47.9707C75.7487 47.873 75.6999 47.7754 75.6348 47.6777C75.765 47.515 75.9603 47.3522 76.2207 47.1895C76.4811 46.9941 76.6764 46.8639 76.8066 46.7988C76.7741 46.5384 76.8392 46.3919 77.002 46.3594C77.1973 46.2943 77.2949 46.1478 77.2949 45.9199C77.4577 45.9525 77.5391 45.8874 77.5391 45.7246C77.5716 45.5618 77.6693 45.513 77.832 45.5781C77.8971 45.3177 78.0436 45.1875 78.2715 45.1875C78.3691 44.9596 78.4993 44.748 78.6621 44.5527C78.8249 44.3249 78.776 44.0807 78.5156 43.8203ZM82.1289 51.6816C81.7708 51.7467 81.6081 51.7956 81.6406 51.8281C81.6732 51.8607 81.6895 51.9258 81.6895 52.0234C81.8197 52.0234 81.9173 52.0072 81.9824 51.9746C82.0801 51.9421 82.1289 51.8444 82.1289 51.6816ZM79.4922 47.0918C79.3945 46.8965 79.2318 46.8314 79.0039 46.8965C78.8086 46.929 78.6784 46.9453 78.6133 46.9453C78.6458 46.7174 78.7109 46.6361 78.8086 46.7012C78.9388 46.7337 79.069 46.7174 79.1992 46.6523C79.1992 46.4896 79.1992 46.3268 79.1992 46.1641C79.1992 46.0013 79.2318 45.8223 79.2969 45.627C79.1341 45.4642 78.9225 45.4479 78.6621 45.5781C78.4342 45.6758 78.304 45.8385 78.2715 46.0664C77.946 46.099 77.7669 46.2129 77.7344 46.4082C77.7344 46.6035 77.5716 46.7174 77.2461 46.75C77.1159 47.1081 76.9694 47.3685 76.8066 47.5312C76.6764 47.694 76.4974 47.8242 76.2695 47.9219C76.2695 48.1172 76.2044 48.2962 76.0742 48.459C75.9766 48.6217 75.8301 48.7357 75.6348 48.8008C75.6673 49.0612 75.6185 49.2891 75.4883 49.4844C75.3906 49.6471 75.4232 49.8262 75.5859 50.0215C75.7812 50.054 75.8952 50.0052 75.9277 49.875C75.9603 49.7448 76.0417 49.6471 76.1719 49.582C76.1068 49.4193 76.1393 49.2565 76.2695 49.0938C76.4323 48.8984 76.6439 48.8008 76.9043 48.8008C76.8717 48.7031 76.9043 48.6055 77.002 48.5078C77.0996 48.3776 77.1973 48.2474 77.2949 48.1172C77.4577 47.8893 77.6042 47.7754 77.7344 47.7754C77.8646 47.7428 78.0111 47.7266 78.1738 47.7266C78.1413 47.4336 78.1413 47.2708 78.1738 47.2383C78.2064 47.2057 78.2552 47.1569 78.3203 47.0918C78.3854 47.222 78.4668 47.3197 78.5645 47.3848C78.6947 47.4173 78.8411 47.4499 79.0039 47.4824C79.1341 47.3197 79.2969 47.1895 79.4922 47.0918ZM81.6895 50.9004C81.2988 50.9004 81.0384 50.9655 80.9082 51.0957C80.8105 51.1934 80.6478 51.2585 80.4199 51.291C80.4525 51.4538 80.4036 51.5514 80.2734 51.584C80.1758 51.6165 80.0618 51.6491 79.9316 51.6816C79.9316 51.9421 79.8665 52.1211 79.7363 52.2188C79.6061 52.3164 79.541 52.4629 79.541 52.6582C79.6712 52.7233 79.7689 52.7233 79.834 52.6582C79.9316 52.5931 80.013 52.5117 80.0781 52.4141C80.1432 52.3164 80.2083 52.235 80.2734 52.1699C80.3711 52.1048 80.485 52.1048 80.6152 52.1699C80.6478 51.9746 80.7129 51.8281 80.8105 51.7305C80.9408 51.6328 81.0872 51.5514 81.25 51.4863C81.2174 51.291 81.25 51.1608 81.3477 51.0957C81.4779 51.0306 81.5918 50.9655 81.6895 50.9004ZM80.5176 49.9727C80.3548 49.9401 80.2572 49.9889 80.2246 50.1191C80.1921 50.2168 80.0944 50.2331 79.9316 50.168C79.9967 50.3958 79.9642 50.5098 79.834 50.5098C79.7038 50.4772 79.5898 50.4772 79.4922 50.5098C79.4596 50.7702 79.3457 51.0143 79.1504 51.2422C78.9551 51.4375 78.7272 51.6165 78.4668 51.7793C78.9225 51.7142 79.1829 51.584 79.248 51.3887C79.3457 51.1934 79.5085 51.1283 79.7363 51.1934C79.7363 50.8678 79.8503 50.6562 80.0781 50.5586C80.306 50.4284 80.4525 50.2331 80.5176 49.9727ZM79.7852 48.0684C79.4596 48.1986 79.1829 48.3613 78.9551 48.5566C78.7272 48.752 78.4993 48.9635 78.2715 49.1914C78.1738 49.2891 78.0762 49.3542 77.9785 49.3867C77.8809 49.4193 77.8646 49.5007 77.9297 49.6309C77.6042 49.8913 77.4414 49.9727 77.4414 49.875C77.474 49.7448 77.4414 49.696 77.3438 49.7285C77.3438 50.1191 77.2624 50.347 77.0996 50.4121C76.9368 50.4447 76.7904 50.4447 76.6602 50.4121C76.6602 50.7051 76.6276 50.9167 76.5625 51.0469C76.4974 51.1445 76.3835 51.2259 76.2207 51.291C76.2533 51.4212 76.2207 51.5352 76.123 51.6328C76.0579 51.6979 75.9766 51.763 75.8789 51.8281C75.7812 51.8932 75.6836 51.9746 75.5859 52.0723C75.4883 52.1699 75.4395 52.3001 75.4395 52.4629C75.9277 52.3978 76.3184 52.1862 76.6113 51.8281C76.9043 51.4375 77.1484 51.0469 77.3438 50.6562C77.5391 50.2656 77.7507 50.0215 77.9785 49.9238C78.2389 49.8262 78.4505 49.696 78.6133 49.5332C78.6784 49.6634 78.8086 49.7611 79.0039 49.8262C79.1992 49.8587 79.362 49.8424 79.4922 49.7773C79.3294 49.6146 79.2155 49.5658 79.1504 49.6309C79.0853 49.6634 79.0039 49.6797 78.9062 49.6797C79.0039 49.2891 79.1504 49.0612 79.3457 48.9961C79.5085 48.8008 79.6712 48.6543 79.834 48.5566C79.9967 48.4264 79.9805 48.2637 79.7852 48.0684ZM78.6621 50.5098C78.4993 50.6725 78.3203 50.819 78.125 50.9492C77.9622 51.0794 77.7832 51.1934 77.5879 51.291C77.8809 51.291 78.0924 51.2096 78.2227 51.0469C78.3529 50.8516 78.4993 50.6725 78.6621 50.5098ZM78.6621 52.5605C78.597 52.4954 78.5645 52.3978 78.5645 52.2676C78.5645 52.1048 78.5482 51.9909 78.5156 51.9258C78.418 52.2188 78.1901 52.4466 77.832 52.6094C78.0924 52.7721 78.3691 52.7559 78.6621 52.5605ZM74.1211 52.4629C73.9583 52.3652 73.8281 52.3815 73.7305 52.5117C73.6328 52.6419 73.5026 52.707 73.3398 52.707C73.6003 52.8372 73.763 52.8861 73.8281 52.8535C73.8932 52.821 73.9746 52.7884 74.0723 52.7559L74.1211 52.4629ZM57.5684 50.168C57.4056 50.4935 57.2266 50.7702 57.0312 50.998C56.8359 51.2259 56.6081 51.4375 56.3477 51.6328C56.6406 51.6328 56.8359 51.5514 56.9336 51.3887C57.0312 51.2259 57.1777 51.112 57.373 51.0469C57.3405 50.8841 57.4056 50.7376 57.5684 50.6074C57.7311 50.4772 57.7311 50.3307 57.5684 50.168ZM70.3613 22.1895C70.4264 22.222 70.459 22.2871 70.459 22.3848C70.459 22.4499 70.4264 22.515 70.3613 22.5801C70.3288 22.6452 70.2799 22.694 70.2148 22.7266C70.1497 22.7591 70.1009 22.7428 70.0684 22.6777C70.0358 22.515 70.0684 22.4336 70.166 22.4336C70.2962 22.4336 70.3613 22.3522 70.3613 22.1895ZM70.1172 23.2148C69.9544 23.2799 69.8242 23.3288 69.7266 23.3613C69.6289 23.3939 69.5475 23.5078 69.4824 23.7031C69.3848 23.4753 69.2871 23.3125 69.1895 23.2148C69.3848 23.0846 69.515 23.0195 69.5801 23.0195C69.6777 22.987 69.8079 22.9707 69.9707 22.9707L70.1172 23.2148ZM70.8008 24.6797C70.7357 24.8099 70.6706 24.9238 70.6055 25.0215C70.5729 25.0866 70.4753 25.1191 70.3125 25.1191C70.3125 24.8262 70.3776 24.6634 70.5078 24.6309C70.638 24.5983 70.7357 24.6146 70.8008 24.6797ZM69.0918 24.0449C68.8639 24.2077 68.7337 24.4193 68.7012 24.6797C68.4082 24.9401 68.2129 25.0866 68.1152 25.1191C68.0176 25.1517 67.9199 25.1842 67.8223 25.2168C67.627 25.0215 67.5618 24.9238 67.627 24.9238C67.6921 24.9238 67.7083 24.8424 67.6758 24.6797C67.806 24.7448 67.9199 24.7448 68.0176 24.6797C68.1478 24.6146 68.2617 24.5332 68.3594 24.4355C68.4896 24.3379 68.6035 24.2402 68.7012 24.1426C68.7988 24.0449 68.929 24.0124 69.0918 24.0449ZM69.7266 25.998C69.5964 26.0957 69.4173 26.0957 69.1895 25.998C69.222 25.8678 69.3197 25.8027 69.4824 25.8027C69.6452 25.8027 69.7266 25.8678 69.7266 25.998ZM69.3359 26.291C69.043 26.6165 68.8151 26.8607 68.6523 27.0234C68.5221 27.1536 68.3268 27.1699 68.0664 27.0723C68.099 26.9746 68.1641 26.8932 68.2617 26.8281C68.3594 26.763 68.4408 26.7142 68.5059 26.6816C68.6035 26.6165 68.6686 26.5677 68.7012 26.5352C68.7663 26.4701 68.7663 26.3887 68.7012 26.291C68.7988 26.2259 68.8965 26.1934 68.9941 26.1934C69.1243 26.1608 69.2383 26.1934 69.3359 26.291Z" fill="white"/>
<path d="M4.2 33.2V35.05L16.25 41.65L18.1 39.85L6.3 34.15L18.1 28.05L16.25 26.25L4.2 33.2Z" fill="#42B983"/>
</svg>
